<svg xmlns="http://www.w3.org/2000/svg" viewBox="0 0 368.21 238.44"><defs><style>.cls-1{fill:#48361d;}.cls-2{fill:#876536;}.cls-3{fill:none;}.cls-4{fill:#c7b299;}.cls-5{fill:#d8d8d8;}.cls-6{fill:#c79550;}.cls-7{fill:#642323;}.cls-8{fill:#a06910;}</style></defs><g id="图层_4" data-name="图层 4"><polyline class="cls-1" points="187.93 26.79 220.47 35.51 132.5 59.09 132.5 41.64 187.93 26.79"/><polyline class="cls-1" points="270.44 48.9 278.92 51.17 270.44 53.45"/><polyline class="cls-1" points="322.47 62.84 329.9 64.83 322.47 66.83"/><polyline class="cls-2" points="278.92 51.17 270.44 53.45 270.44 215.66 278.92 215.66 278.92 51.17"/><polyline class="cls-2" points="322.47 66.83 329.9 64.83 329.9 215.66 322.47 215.66"/><line class="cls-2" x1="322.47" y1="66.83" x2="322.47" y2="215.66"/><polyline class="cls-2" points="353.02 44.24 346.05 46.11 346.05 238.44 353.02 238.44 353.02 44.24"/><polyline class="cls-2" points="305.25 31.44 297.32 33.56 297.32 238.44 305.25 238.44 305.25 31.44"/><polygon class="cls-2" points="241.63 19.26 241.63 132.48 220.47 132.48 220.47 71.81 220.47 35.51 178.81 46.68 178.81 46.68 132.5 59.09 132.5 95.4 132.5 95.4 132.5 238.44 220.47 238.44 220.47 215.66 241.63 215.66 241.63 238.44 250.73 238.44 250.73 16.83 241.63 19.26"/></g><g id="图层_3" data-name="图层 3"><polygon class="cls-3" points="220.47 116.13 220.47 35.51 210.7 32.9 210.7 116.13 220.47 116.13"/><polygon class="cls-3" points="278.92 51.17 270.44 48.9 270.44 215.66 278.92 215.66 278.92 51.17"/><rect class="cls-3" x="210.7" y="140.12" width="9.77" height="75.55"/><polygon class="cls-3" points="329.9 64.83 322.47 62.84 322.47 215.66 329.9 215.66 329.9 64.83"/><polygon class="cls-4" points="353.02 44.24 353.02 238.44 368.2 238.44 368.2 48.31 353.02 44.24"/><path class="cls-4" d="M274.51,259.35H321.1V50.22L274.51,37.74ZM294.22,69.81l8.48,2.28V236.57h-8.48Z" transform="translate(-23.79 -20.91)"/><path class="cls-4" d="M329,259.35h40.81V63.28L329,52.35ZM346.26,83.76l7.42,2V236.57h-7.42Z" transform="translate(-23.79 -20.91)"/><polygon class="cls-4" points="187.93 0 187.93 26.79 210.7 32.9 220.47 35.51 220.47 111.26 187.93 111.26 187.93 238.44 241.63 238.44 241.63 215.66 220.47 215.66 210.7 215.66 210.7 132.48 241.63 132.48 241.63 14.39 187.93 0"/></g><g id="图层_2" data-name="图层 2"><path class="cls-2" d="M23.79,259.35V71.26L211.71,20.91V47.7L156.29,62.55V80L202.6,67.59V259.35Zm146.84-65V168.05l-47.91,12.78V150.66l33.57-9V116.31L54.89,143.48v25.35l45-12V187L54.89,199v26.3Z" transform="translate(-23.79 -20.91)"/><polygon class="cls-5" points="146.84 147.14 146.84 173.41 31.1 204.43 31.1 178.13 76.05 166.08 76.05 135.88 31.1 147.92 31.1 122.57 132.5 95.4 132.5 120.75 98.93 129.75 98.93 159.92 146.84 147.14"/></g><g id="图层_5" data-name="图层 5"><path class="cls-5" d="M178.2,70.45l-1.29-.09c-.82-.43-1.73-.86-2.72-1.28q-2.58-.36-6.12-1.08l.28-.21.31.06c2.13.42,3.61.69,4.45.81-1.33-.49-3-1-4.87-1.54l-1.78.45-1.29-.32-3.79-1.79-1.68.44-1.29-.32L160.8,65l1.3.32,3.79,1.8,1.66-.43,1.29.32c2.28.63,4.3,1.28,6,2a15.25,15.25,0,0,0,6.07-.17L184,68l1.21.39-3,.73a17.64,17.64,0,0,1-6.38.2Q177.12,69.87,178.2,70.45Zm-12.32-4.27-1.2-.3,2-.53-2.13-.53-1.66.43-1.3-.32,1.66-.44L161,63.93l.59-.16,2.24.56,1.89-.5,3.45.87.79-.2,1.21.3-.78.21,3.44.86-1.91.49,1.94.49,2.19-.55,1.21.3-2.19.55,1.94.49,2.46-.61,1.3.32-2.47.62,2.58.65-.61.15-2.58-.65-2.14.53-1.29-.32,2.13-.53-1.93-.49-1.82.46-1.2-.3,1.81-.46-1.94-.49-1.68.43-1.2-.3,1.68-.43-2.23-.56Zm.55-1.86-1.28.34,2.14.54,1.29-.34Zm4.29,1.74,1.3-.33-2.23-.57-1.3.34Z" transform="translate(-23.79 -20.91)"/><path class="cls-5" d="M171.89,62.88l-1.41-.36,6.93-1.84,1.43.37-3.21.84,15.51,3.93,3.83-.94,1.33.33-8.2,2-1.31-.33L190.5,66,175,62.06Z" transform="translate(-23.79 -20.91)"/><path class="cls-5" d="M186.18,60.68l-4.54-1.16,4.87-1.29.87.23,5.68,1.45.3.08.14.08,5.42,3.06,3.83-1,1.7.43L198.89,64,198,63.5l-6.12-3.45L187.4,58.9l-3.21.85,2.82.71Z" transform="translate(-23.79 -20.91)"/><path class="cls-5" d="M190.59,57.13l5.26-1.39,18.22,4.67-5.44,1.34Zm6.16-.69-3.49.92,14.51,3.71,3.59-.88Z" transform="translate(-23.79 -20.91)"/><path class="cls-5" d="M199.89,54.67l5.48-1.46L223.9,58l-5.66,1.39Zm6.37-.74-3.64,1,14.77,3.8,3.74-.92Z" transform="translate(-23.79 -20.91)"/><path class="cls-5" d="M231.14,56.13l-16.61-4.31-2,.54-1.79-.47,2.42-.66.47-.12,18.45,4.78Z" transform="translate(-23.79 -20.91)"/></g><g id="图层_6" data-name="图层 6"><path class="cls-6" d="M115.89,112.56,114.21,105,105,107.46,103.2,116a1.81,1.81,0,0,1-1.23,1.45c-.82.22-1.22-.23-1.22-1.35v-.37l2.41-11.09,10.17-2.73,2.7-.72,2.31,9.45a3.23,3.23,0,0,1,.15.7,1.86,1.86,0,0,1-1.38,2C116.5,113.51,116.09,113.25,115.89,112.56Z" transform="translate(-23.79 -20.91)"/><path class="cls-1" d="M110.84,79.82,116,101.15l-2.7.72,0-.16-3.67-15.6L106,103.67l0,.18,7.42-2-10.17,2.73,5.24-24.12c.2-1,.61-1.66,1.22-1.82S110.64,78.88,110.84,79.82Z" transform="translate(-23.79 -20.91)"/><path class="cls-6" d="M211.72,20.91v26.8L156.29,62.56v53.75l-33.55,9h0V71.55L63.49,87.42V60.63ZM64,64.1l-.13-.34-.19.31Z" transform="translate(-23.79 -20.91)"/><path class="cls-7" d="M202.61,142.57V259.35h-32V220L23.8,259.35V125.86l18.81-5v3.55a8.57,8.57,0,0,0,1.84,5.84,4.06,4.06,0,0,0,4.43,1.42l5-1.35a1.85,1.85,0,0,0,1.37-2.05c0-1-.45-1.36-1.37-1.12l-5,1.36a2.33,2.33,0,0,1-2.6-1,6.15,6.15,0,0,1-1.07-3.82v-3.55L62,115.63v3.55A8.64,8.64,0,0,0,63.82,125a4.09,4.09,0,0,0,4.44,1.42l5-1.35a1.86,1.86,0,0,0,1.37-2c0-1-.46-1.36-1.37-1.12l-5,1.35a2.3,2.3,0,0,1-2.6-1,6.1,6.1,0,0,1-1.07-3.81v-3.55l16.78-4.49v10.81c0,1.12.41,1.57,1.22,1.35l10.1-2.7a1.86,1.86,0,0,0,1.37-2.05c0-1-.46-1.37-1.37-1.12L84,119.06v-9.32l19.19-5.14-2.41,11.09v.37c0,1.12.4,1.57,1.22,1.35A1.81,1.81,0,0,0,103.2,116l1.83-8.5,9.18-2.46,1.68,7.56c.2.69.61,1,1.22.79a1.86,1.86,0,0,0,1.38-2,3.23,3.23,0,0,0-.15-.7L116,101.15l6.69-1.79v26L54.9,143.48v81.86l115.74-31V172.47a3.39,3.39,0,0,0-4.27-3.28l-10.07,2.68V141.66l14.34-3.83,19.11-5.12A10.21,10.21,0,0,1,202.61,142.57Z" transform="translate(-23.79 -20.91)"/><path class="cls-6" d="M156.3,141.66v30.21l-33.58,9V150.66S156.3,141.66,156.3,141.66Z" transform="translate(-23.79 -20.91)"/><polygon class="cls-6" points="76.05 135.88 76.05 166.08 31.11 178.13 31.11 147.92 76.05 135.88"/><path class="cls-6" d="M92.69,116.73c.91-.25,1.37.13,1.37,1.12a1.86,1.86,0,0,1-1.37,2.05l-10.1,2.7c-.81.22-1.22-.23-1.22-1.35V110.44l2.6-.7v9.32Z" transform="translate(-23.79 -20.91)"/><path class="cls-1" d="M92.69,83.19c.91-.24,1.37.26,1.37,1.5a1.74,1.74,0,0,1-1.37,1.86L84,88.88v11.55l6.27-1.68c.81-.21,1.22.24,1.22,1.35a1.65,1.65,0,0,1-1.22,1.82L84,103.6v6.14l-2.6.7V88.09c0-1.24.41-2,1.22-2.19Z" transform="translate(-23.79 -20.91)"/><path class="cls-6" d="M73.31,121.92c.91-.24,1.37.13,1.37,1.12a1.86,1.86,0,0,1-1.37,2l-5,1.35A4.09,4.09,0,0,1,63.82,125,8.64,8.64,0,0,1,62,119.18v-3.55l2.6-.7v3.55a6.1,6.1,0,0,0,1.07,3.81,2.3,2.3,0,0,0,2.6,1Z" transform="translate(-23.79 -20.91)"/><path class="cls-1" d="M73.31,88.39c.91-.25,1.37.25,1.37,1.49a1.72,1.72,0,0,1-1.37,1.86l-5,1.35a4.45,4.45,0,0,0-2.6,2.28,8.92,8.92,0,0,0-1.07,4.48v15.08l-2.6.7V100.55a13.7,13.7,0,0,1,1.83-6.92,7.57,7.57,0,0,1,4.44-3.89Z" transform="translate(-23.79 -20.91)"/><polygon class="cls-8" points="40.07 42.85 40.2 43.19 39.88 43.16 40.07 42.85"/><path class="cls-6" d="M53.93,127.11c.92-.24,1.37.13,1.37,1.12a1.85,1.85,0,0,1-1.37,2.05l-5,1.35a4.06,4.06,0,0,1-4.43-1.42,8.57,8.57,0,0,1-1.84-5.84v-3.55l2.6-.7v3.55a6.15,6.15,0,0,0,1.07,3.82,2.33,2.33,0,0,0,2.6,1Z" transform="translate(-23.79 -20.91)"/><path class="cls-1" d="M53.93,93.58c.92-.25,1.37.25,1.37,1.49a1.72,1.72,0,0,1-1.37,1.86l-5,1.36a4.38,4.38,0,0,0-2.6,2.28A8.88,8.88,0,0,0,45.21,105v15.08l-2.6.7V105.74a13.61,13.61,0,0,1,1.84-6.92,7.59,7.59,0,0,1,4.43-3.89Z" transform="translate(-23.79 -20.91)"/></g></svg>