<svg xmlns="http://www.w3.org/2000/svg" viewBox="0 0 368.21 238.44"><defs><style>.cls-1{fill:#48361d;}.cls-2{fill:#876536;}.cls-3{fill:none;}.cls-4{fill:#c7b299;}.cls-5{fill:#d8d8d8;}.cls-6{fill:#c79550;}.cls-7{fill:#642323;}.cls-8{fill:#a06910;}</style></defs><g id="图层_4" data-name="图层 4"><polyline class="cls-1" points="187.93 26.8 220.47 35.52 132.5 59.09 132.5 41.65 187.93 26.8"/><polyline class="cls-1" points="270.44 48.9 278.92 51.18 270.44 53.45"/><polyline class="cls-1" points="322.47 62.85 329.9 64.84 322.47 66.83"/><polyline class="cls-2" points="278.92 51.18 270.44 53.45 270.44 215.67 278.92 215.67 278.92 51.18"/><polyline class="cls-2" points="322.47 66.83 329.9 64.84 329.9 215.67 322.47 215.67"/><line class="cls-2" x1="322.47" y1="66.83" x2="322.47" y2="215.67"/><polyline class="cls-2" points="353.02 44.24 346.05 46.11 346.05 238.44 353.02 238.44 353.02 44.24"/><polyline class="cls-2" points="305.25 31.44 297.32 33.56 297.32 238.44 305.25 238.44 305.25 31.44"/><polygon class="cls-2" points="241.63 19.27 241.63 140.12 220.47 140.12 220.47 71.81 220.47 35.52 178.81 46.68 178.81 46.68 132.5 59.09 132.5 95.4 132.5 95.4 132.5 238.44 220.47 238.44 220.47 215.67 241.63 215.67 241.63 238.44 250.73 238.44 250.73 16.83 241.63 19.27"/></g><g id="图层_3" data-name="图层 3"><polygon class="cls-3" points="220.47 116.13 220.47 35.52 210.7 32.9 210.7 116.13 220.47 116.13"/><polygon class="cls-3" points="278.92 51.18 270.44 48.9 270.44 215.67 278.92 215.67 278.92 51.18"/><rect class="cls-3" x="210.7" y="140.12" width="9.77" height="75.55"/><polygon class="cls-3" points="329.9 64.84 322.47 62.85 322.47 215.67 329.9 215.67 329.9 64.84"/><polygon class="cls-4" points="353.02 44.24 353.02 238.44 368.2 238.44 368.2 48.31 353.02 44.24"/><path class="cls-4" d="M274.51,259.35H321.1V50.22L274.51,37.74ZM294.22,69.81l8.48,2.28V236.57h-8.48Z" transform="translate(-23.79 -20.91)"/><path class="cls-4" d="M329,259.35h40.81V63.28L329,52.35ZM346.26,83.76l7.42,2V236.57h-7.42Z" transform="translate(-23.79 -20.91)"/><polygon class="cls-4" points="187.93 0 187.93 26.8 210.7 32.9 220.47 35.52 220.47 116.13 210.7 116.13 187.93 116.13 187.93 238.44 241.63 238.44 241.63 215.67 220.47 215.67 210.7 215.67 210.7 140.12 220.47 140.12 241.63 140.12 241.63 14.39 187.93 0"/></g><g id="图层_2" data-name="图层 2"><path class="cls-2" d="M202.6,67.59V259.35H23.79V71.26L202.6,23.35V50.14L156.29,62.55V80Zm-32,126.73V168.05l-47.91,12.78V150.66l33.57-9V116.31L54.89,143.48v25.35l45-12V187L54.89,199v26.3Z" transform="translate(-23.79 -20.91)"/><polygon class="cls-5" points="146.84 147.14 146.84 173.41 31.1 204.43 31.1 178.13 76.05 166.08 76.05 135.88 31.1 147.92 31.1 122.57 132.5 95.4 132.5 120.75 98.93 129.75 98.93 159.92 146.84 147.14"/></g><g id="图层_5" data-name="图层 5"><path class="cls-5" d="M178.2,70.45l-1.29-.09c-.82-.43-1.73-.86-2.72-1.28q-2.58-.36-6.12-1.08l.28-.21.31.06c2.13.42,3.61.69,4.45.81-1.33-.49-3-1-4.87-1.54l-1.78.45-1.29-.32-3.79-1.79-1.68.44-1.29-.32L160.8,65l1.3.32,3.79,1.8,1.66-.43,1.29.32c2.28.63,4.3,1.28,6,2a15.25,15.25,0,0,0,6.07-.17L184,68l1.21.39-3,.73a17.64,17.64,0,0,1-6.38.2Q177.12,69.87,178.2,70.45Zm-12.32-4.27-1.2-.3,2-.53-2.13-.53-1.66.43-1.3-.32,1.66-.44L161,63.93l.59-.16,2.24.56,1.89-.5,3.45.87.79-.2,1.21.3-.78.21,3.44.86-1.91.49,1.94.49,2.19-.55,1.21.3-2.19.55,1.94.49,2.46-.61,1.3.32-2.47.62,2.58.65-.61.15-2.58-.65-2.14.53-1.29-.32,2.13-.53-1.93-.49-1.82.46-1.2-.3,1.81-.46-1.94-.49-1.68.43-1.2-.3,1.68-.43-2.23-.56Zm.55-1.86-1.28.34,2.14.54,1.29-.34Zm4.29,1.74,1.3-.33-2.23-.57-1.3.34Z" transform="translate(-23.79 -20.91)"/><path class="cls-5" d="M171.89,62.88l-1.41-.36,6.93-1.84,1.43.37-3.21.84,15.51,3.93,3.83-.94,1.33.33-8.2,2-1.31-.33L190.5,66,175,62.06Z" transform="translate(-23.79 -20.91)"/><path class="cls-5" d="M186.18,60.68l-4.54-1.16,4.87-1.29.87.23,5.68,1.45.3.08.14.08,5.42,3.06,3.83-1,1.7.43L198.89,64,198,63.5l-6.12-3.45L187.4,58.9l-3.21.85,2.82.71Z" transform="translate(-23.79 -20.91)"/><path class="cls-5" d="M190.59,57.13l5.26-1.39,18.22,4.67-5.44,1.34Zm6.16-.69-3.49.92,14.51,3.71,3.59-.88Z" transform="translate(-23.79 -20.91)"/><path class="cls-5" d="M199.89,54.67l5.48-1.46L223.9,58l-5.66,1.39Zm6.37-.74-3.64,1,14.77,3.8,3.74-.92Z" transform="translate(-23.79 -20.91)"/><path class="cls-5" d="M231.14,56.13l-16.61-4.31-2,.54-1.79-.47,2.42-.66.47-.12,18.45,4.78Z" transform="translate(-23.79 -20.91)"/></g><g id="图层_1" data-name="图层 1"><path class="cls-6" d="M211.71,20.91v26.8L156.28,62.56v53.75l-33.55,9h0V71.55L63.48,87.42V60.63ZM64,64.1l-.13-.34-.19.31Z" transform="translate(-23.79 -20.91)"/><path class="cls-7" d="M189.74,132.71l-19.11,5.12-14.34,3.83v30.21l10.08-2.68a3.39,3.39,0,0,1,4.26,3.28v21.86l-115.74,31V143.48l67.82-18.17V99.36l-98.92,26.5V259.35L170.63,220v39.34h32V142.57A10.21,10.21,0,0,0,189.74,132.71Z" transform="translate(-23.79 -20.91)"/><path class="cls-6" d="M156.29,141.66v30.21l-33.58,9V150.66S156.29,141.66,156.29,141.66Z" transform="translate(-23.79 -20.91)"/><polygon class="cls-6" points="76.05 135.88 76.05 166.08 31.11 178.13 31.11 147.92 76.05 135.88"/><polygon class="cls-8" points="40.07 42.85 40.2 43.19 39.88 43.16 40.07 42.85"/><path d="M58.35,87.89s0,0,0,0Z" transform="translate(-23.79 -20.91)"/></g></svg>