<svg xmlns="http://www.w3.org/2000/svg" viewBox="0 0 574.91 574.9"><defs><style>.cls-1{fill:#fff;stroke:#000;stroke-miterlimit:10;stroke-width:3px;}.cls-2{fill:none;}.cls-3{font-size:34px;font-family:AlibabaPuHuiTi-Regular, Alibaba PuHuiTi;letter-spacing:0.76em;}</style></defs><g id="图层_1" data-name="图层 1"><path class="cls-1" d="M420.94,11.69C263,11.69,135,139.71,135,297.64s128,286,286,286,286-128,286-286S578.87,11.69,420.94,11.69Zm-99,540.6C220,512.64,147.78,413.57,147.78,297.64c0-150.87,122.3-273.17,273.16-273.17s273.17,122.3,273.17,273.17c0,115.93-72.22,215-174.13,254.65" transform="translate(-133.49 -10.19)"/><path class="cls-1" d="M321.91,552.29" transform="translate(-133.49 -10.19)"/><path class="cls-1" d="M520,552.29" transform="translate(-133.49 -10.19)"/><path class="cls-1" d="M321.91,552.29C220,512.64,147.78,413.57,147.78,297.64c0-150.87,122.3-273.17,273.16-273.17s273.17,122.3,273.17,273.17c0,115.93-72.22,215-174.13,254.65" transform="translate(-133.49 -10.19)"/><path class="cls-1" d="M520,552.29" transform="translate(-133.49 -10.19)"/><path class="cls-1" d="M321.91,552.29" transform="translate(-133.49 -10.19)"/><path class="cls-1" d="M684.81,294.13" transform="translate(-133.49 -10.19)"/><path class="cls-2" d="M521.63,552.29" transform="translate(-133.49 -10.19)"/><path class="cls-2" d="M320.26,552.29" transform="translate(-133.49 -10.19)"/></g><g id="图层_2" data-name="图层 2"><path class="cls-1" d="M625.33,345.58V323.87c-33.38-16.11-97-118.08-97-118.08h42l-12.16-13.48c-29.08-1.51-46-33.18-46-33.18s52.23,2.89,68.39-2.7a94.21,94.21,0,0,0,9.13-4.46l-5.91-10.67s-10.46,3.74-13.34,3.38c-14.52-1.79-32.88-39-32.88-39l10.71-9.63-9.64-8.57L529,96.07H312l-9.86-6.73-9.48,10.5,11.08,8.47s-17.6,34.46-30.71,35.82c-2.89.3-12.3-2.59-12.3-2.59l-5.87,9.12s9.64,5.66,12.8,6.79c13.72,4.87,65.48,1.68,65.48,1.68s-14,25.06-51.36,33.18l-7.29,13.48h42.35s-61.71,89.64-97.9,118.08v21.71H410.67l-.11,26.47a4.53,4.53,0,0,1-4.53,4.5H299.43l.1,20.91H410.61l-.06,58.46H277.45v24.65H568.57V455.92H438.13l.06-58.46H548.08V376.55H442.76a4.54,4.54,0,0,1-4.54-4.54l0-26.43ZM438.27,159.13h47.54l71.44,150.15A10.21,10.21,0,0,1,548,323.87H458.68a20.41,20.41,0,0,1-20.41-20.41V205.79h15.56V192.31C441,188.56,438.27,159.13,438.27,159.13ZM282,308.83l80.3-149.7h48.37s-.77,26.51-16.63,33.18v13.48h16.63v97.67a20.41,20.41,0,0,1-20.41,20.41H291A10.21,10.21,0,0,1,282,308.83Z" transform="translate(-133.49 -10.19)"/><text class="cls-3" transform="translate(212.18 553.25)">2001</text></g></svg>