<svg xmlns="http://www.w3.org/2000/svg" viewBox="0 0 574.91 574.9"><defs><style>.cls-1{fill:#fff;stroke:#000;stroke-miterlimit:10;stroke-width:3px;}.cls-2{fill:none;}</style></defs><g id="图层_1" data-name="图层 1"><path class="cls-1" d="M420.94,11.69C263,11.69,135,139.71,135,297.64s128,286,286,286,286-128,286-286S578.87,11.69,420.94,11.69Zm-99,540.6C220,512.64,147.78,413.57,147.78,297.64c0-150.87,122.3-273.17,273.16-273.17s273.17,122.3,273.17,273.17c0,115.93-72.22,215-174.13,254.65" transform="translate(-133.49 -10.19)"/><path class="cls-1" d="M321.91,552.29" transform="translate(-133.49 -10.19)"/><path class="cls-1" d="M520,552.29" transform="translate(-133.49 -10.19)"/><path class="cls-1" d="M321.91,552.29C220,512.64,147.78,413.57,147.78,297.64c0-150.87,122.3-273.17,273.16-273.17s273.17,122.3,273.17,273.17c0,115.93-72.22,215-174.13,254.65" transform="translate(-133.49 -10.19)"/><path class="cls-1" d="M520,552.29" transform="translate(-133.49 -10.19)"/><path class="cls-1" d="M321.91,552.29" transform="translate(-133.49 -10.19)"/><path class="cls-1" d="M684.81,294.13" transform="translate(-133.49 -10.19)"/><path class="cls-2" d="M521.63,552.29" transform="translate(-133.49 -10.19)"/><path class="cls-2" d="M320.26,552.29" transform="translate(-133.49 -10.19)"/></g><g id="图层_2" data-name="图层 2"><path class="cls-1" d="M625.33,345.58V323.87c-33.38-16.11-97-118.08-97-118.08h42l-12.16-13.48c-29.08-1.51-46-33.18-46-33.18s52.23,2.89,68.39-2.7a94.21,94.21,0,0,0,9.13-4.46l-5.91-10.67s-10.46,3.74-13.34,3.38c-14.52-1.79-32.88-39-32.88-39l10.71-9.63-9.64-8.57L529,96.07H312l-9.86-6.73-9.48,10.5,11.08,8.47s-17.6,34.46-30.71,35.82c-2.89.3-12.3-2.59-12.3-2.59l-5.87,9.12s9.64,5.66,12.8,6.79c13.72,4.87,65.48,1.68,65.48,1.68s-14,25.06-51.36,33.18l-7.29,13.48h42.35s-61.71,89.64-97.9,118.08v21.71H410.67l-.11,26.47a4.53,4.53,0,0,1-4.53,4.5H299.43l.1,20.91H410.61l-.06,58.46H277.45v24.65H568.57V455.92H438.13l.06-58.46H548.08V376.55H442.76a4.54,4.54,0,0,1-4.54-4.54l0-26.43ZM438.27,159.13h47.54l71.44,150.15A10.21,10.21,0,0,1,548,323.87H458.68a20.41,20.41,0,0,1-20.41-20.41V205.79h15.56V192.31C441,188.56,438.27,159.13,438.27,159.13ZM282,308.83l80.3-149.7h48.37s-.77,26.51-16.63,33.18v13.48h16.63v97.67a20.41,20.41,0,0,1-20.41,20.41H291A10.21,10.21,0,0,1,282,308.83Z" transform="translate(-133.49 -10.19)"/><path d="M347.61,560.21c2.52-2,4.53-3.65,6.05-5a34,34,0,0,0,3.54-3.64,9.58,9.58,0,0,0,1.67-2.8,8,8,0,0,0,.4-2.5,4.19,4.19,0,0,0-.46-2.08,3.65,3.65,0,0,0-1.17-1.29,4.16,4.16,0,0,0-1.61-.64,8.93,8.93,0,0,0-1.75-.17c-.75,0-1.55,0-2.38.11a16.24,16.24,0,0,0-2.66.5v-2.62a21.06,21.06,0,0,1,2.54-.41,28.37,28.37,0,0,1,2.84-.13,12,12,0,0,1,3.12.37,6.44,6.44,0,0,1,2.4,1.19,5.15,5.15,0,0,1,1.53,2.11,8.18,8.18,0,0,1,.53,3.09,9.26,9.26,0,0,1-.48,3,10.64,10.64,0,0,1-1.6,2.92,23.42,23.42,0,0,1-3,3.27q-1.91,1.75-4.76,4l-1.36,1v.31h12.17v2.58H347.61Z" transform="translate(-133.49 -10.19)"/><path d="M400.89,563.78a9.24,9.24,0,0,1-3.23-.53,5.58,5.58,0,0,1-2.52-1.88,10,10,0,0,1-1.63-3.73,31.22,31.22,0,0,1,0-12,10.12,10.12,0,0,1,1.63-3.72,5.51,5.51,0,0,1,2.52-1.91,9.48,9.48,0,0,1,3.23-.52,9.68,9.68,0,0,1,3.25.52,5.48,5.48,0,0,1,2.53,1.91,10,10,0,0,1,1.63,3.72,31.22,31.22,0,0,1,0,12,9.86,9.86,0,0,1-1.63,3.73,5.55,5.55,0,0,1-2.53,1.88A9.43,9.43,0,0,1,400.89,563.78Zm0-2.55a5.23,5.23,0,0,0,2.18-.42,3.5,3.5,0,0,0,1.53-1.52,9.14,9.14,0,0,0,.9-2.94,38.07,38.07,0,0,0,0-9.38,9.14,9.14,0,0,0-.9-2.94,3.5,3.5,0,0,0-1.53-1.52,5.23,5.23,0,0,0-2.18-.42,5.08,5.08,0,0,0-2.14.42,3.43,3.43,0,0,0-1.52,1.52,9.17,9.17,0,0,0-.88,2.94,38.07,38.07,0,0,0,0,9.38,9.17,9.17,0,0,0,.88,2.94,3.43,3.43,0,0,0,1.52,1.52A5.08,5.08,0,0,0,400.89,561.23Z" transform="translate(-133.49 -10.19)"/><path d="M446.35,563.78a9.24,9.24,0,0,1-3.23-.53,5.53,5.53,0,0,1-2.52-1.88,9.86,9.86,0,0,1-1.63-3.73,31.22,31.22,0,0,1,0-12,10,10,0,0,1,1.63-3.72,5.46,5.46,0,0,1,2.52-1.91,9.48,9.48,0,0,1,3.23-.52,9.57,9.57,0,0,1,3.24.52,5.51,5.51,0,0,1,2.54,1.91,10.12,10.12,0,0,1,1.63,3.72,31.22,31.22,0,0,1,0,12,10,10,0,0,1-1.63,3.73,5.58,5.58,0,0,1-2.54,1.88A9.33,9.33,0,0,1,446.35,563.78Zm0-2.55a5.19,5.19,0,0,0,2.17-.42,3.5,3.5,0,0,0,1.53-1.52,8.66,8.66,0,0,0,.9-2.94,38.07,38.07,0,0,0,0-9.38,8.66,8.66,0,0,0-.9-2.94,3.5,3.5,0,0,0-1.53-1.52,5.19,5.19,0,0,0-2.17-.42,5.08,5.08,0,0,0-2.14.42,3.38,3.38,0,0,0-1.52,1.52,8.93,8.93,0,0,0-.88,2.94,38.07,38.07,0,0,0,0,9.38,8.93,8.93,0,0,0,.88,2.94,3.38,3.38,0,0,0,1.52,1.52A5.08,5.08,0,0,0,446.35,561.23Z" transform="translate(-133.49 -10.19)"/><path d="M491.33,542.63l-5.85,1.13v-2.49l6.9-1.42h2v23.59h-3.06Z" transform="translate(-133.49 -10.19)"/></g></svg>