<svg xmlns="http://www.w3.org/2000/svg" viewBox="0 0 611.81 549.31"><defs><style>.cls-1{fill:#fff;stroke:#000;stroke-miterlimit:10;stroke-width:3px;}.cls-2{font-size:60px;font-family:WenYue-ShengHuoJiaTi-J-GBpc-EUC-H, "WenYue ShengHuoJiaTi (Authorization Required)";letter-spacing:0.31em;}</style></defs><g id="图层_3" data-name="图层 3"><path class="cls-1" d="M725,554.78H116.86l63.23-370c6-42.84,32.29-79,69.08-95.27C324.94,56,422.93,9.11,422.93,9.11s85.7,47.83,155.17,81.34c33.87,16.34,58.18,49.87,65.06,89.6Z" transform="translate(-115.08 -7.42)"/><path class="cls-1" d="M532.86,540.41H709l-77.56-355c-6.52-37.64-29.54-69.4-61.63-84.88-65.81-31.74-147-77.05-147-77.05S330,67.93,258.22,99.63c-34.85,15.39-59.71,49.67-65.44,90.25l-59.9,350.53H309" transform="translate(-115.08 -7.42)"/><text class="cls-2" transform="translate(216.05 538.09)">2001</text></g><g id="图层_2" data-name="图层 2"><path class="cls-1" d="M438.5,412.92H633l-7.4-25.83c-33.37-19.17-97-140.48-97-140.48h42l-12.15-16c-29.09-1.79-56-39.48-56-39.48s81.74,3.49,97.9-3.15c2.74-1.13,10.34-8.57,10.34-8.57l-8-9.88s-9.5,9-12.38,8.57C575.8,175.93,551,162.28,541.14,100c-.65-4.1-9.31-2.35-9.31-2.35l-.93,18.45H312.23l.3-18.11s-10.27-.69-10.87,2.52c-11.81,64.14-46.28,76.52-59.39,78.13-2.89.36-10.71-7.67-10.71-7.67L224,179.37s8.11,8.17,11.28,9.51c13.72,5.79,108.05,2.21,108.05,2.21s-24,29.81-61.35,39.48l-7.29,16h42.35S292.14,322,219.17,387.09l-6.34,25.83H438.5m0-50.34,0,26.43,15.19,36.54H209.45l-7.8,20.91H414.1l-.1,18.46H195.86l-12.11,24.65H664.29l-10.24-24.65H434.37l.1-18.46H645.23L636,425.55H453.66M438.52,191.09h47.54L557.5,369.73c3.22,8.06-1.71,17.36-9.21,17.36H458.93c-11.27,0-20.41-10.87-20.41-24.28V246.61h15.56v-16C441.23,226.11,438.52,191.09,438.52,191.09ZM282.27,369.19l80.3-178.1h48.37s-.76,31.54-16.63,39.48v16h16.63v116.2c0,13.41-9.13,24.28-20.41,24.28H291.27C283.55,387.09,278.62,377.29,282.27,369.19Z" transform="translate(-115.08 -7.42)"/></g></svg>