<?xml version="1.0" encoding="utf-8"?>
<!-- Generator: Adobe Illustrator 25.0.0, SVG Export Plug-In . SVG Version: 6.00 Build 0)  -->
<svg version="1.1" id="图层_1" xmlns="http://www.w3.org/2000/svg" xmlns:xlink="http://www.w3.org/1999/xlink" x="0px" y="0px"
	 viewBox="0 0 611.8 549.3" style="enable-background:new 0 0 611.8 549.3;" xml:space="preserve">
<style type="text/css">
	.st0{fill:#FFFFFF;stroke:#000000;stroke-width:3;stroke-miterlimit:10;}
	.st1{enable-background:new    ;}
</style>
<g id="图层_3">
	<path class="st0" d="M609.9,547.4H1.8l63.2-370c6-42.8,32.3-79,69.1-95.3C209.9,48.6,307.8,1.7,307.8,1.7S393.5,49.5,463,83
		c33.9,16.3,58.2,49.9,65.1,89.6L609.9,547.4z"/>
	<path class="st0" d="M417.8,533h176.1l-77.6-355c-6.5-37.6-29.5-69.4-61.6-84.9c-65.8-31.7-147-77.1-147-77.1
		s-92.8,44.5-164.6,76.2c-34.9,15.4-59.7,49.7-65.4,90.3L17.8,533h176.1"/>
	<g class="st1">
		<path d="M219.2,505.8v-11h24.4v2.1l-0.1,13.7v0.7l-0.4,0.5l-16.2,21.2h18.5v4.1h-26.9l2.6-3.4l18.3-24V499h-16v6.8H219.2z"/>
		<path d="M270.1,494.7h25.3V538h-25.3V494.7z M291.1,499h-16.7v34.8h16.7V499z"/>
		<path d="M320.7,494.7H346V538h-25.3V494.7z M341.7,499H325v34.8h16.7V499z"/>
		<path d="M384.6,537.6v-38.3l-8.8,0.1v-4.1l10.9-0.1h2.1v42.5H384.6z"/>
	</g>
</g>
<g id="图层_2_1_">
	<path class="st0" d="M510.5,379.7c-33.4-19.2-97-140.5-97-140.5h42l-12.2-16c-29.1-1.8-56-39.5-56-39.5s81.7,3.5,97.9-3.1
		c2.7-1.1,10.3-8.6,10.3-8.6l-8-9.9c0,0-9.5,9-12.4,8.6c-14.5-2.2-39.3-15.8-49.2-78.1c-0.7-4.1-9.3-2.3-9.3-2.3l-0.9,18.5H197.2
		l0.3-18.1c0,0-10.3-0.7-10.9,2.5c-11.8,64.1-46.3,76.5-59.4,78.1c-2.9,0.4-10.7-7.7-10.7-7.7l-7.6,8.4c0,0,8.1,8.2,11.3,9.5
		c13.7,5.8,108.1,2.2,108.1,2.2s-24,29.8-61.4,39.5l-7.3,16H202c0,0-24.9,75.4-97.9,140.5l-6.3,25.8h420.2L510.5,379.7z
		 M295.9,239.2v116.2c0,13.4-9.1,24.3-20.4,24.3h-99.3c-7.7,0-12.6-9.8-9-17.9l80.3-178.1h48.4c0,0-0.8,31.5-16.6,39.5v16
		L295.9,239.2z M433.2,379.7h-89.4c-11.3,0-20.4-10.9-20.4-24.3V239.2H339v-16c-12.9-4.5-15.6-39.5-15.6-39.5H371l71.4,178.6
		C445.6,370.4,440.7,379.7,433.2,379.7z"/>
	<polygon class="st0" points="539,457.5 319.3,457.5 319.4,439 530.2,439 520.9,418.1 338.6,418.1 94.4,418.1 86.6,439 299,439 
		298.9,457.5 80.8,457.5 68.7,482.1 284.9,482.1 331.1,482.1 549.2,482.1 	"/>
</g>
</svg>
