<svg xmlns="http://www.w3.org/2000/svg" xmlns:xlink="http://www.w3.org/1999/xlink" viewBox="0 0 419.86 419.86"><defs><style>.cls-1{fill:#fff;stroke:#b3b1bd;}.cls-1,.cls-11,.cls-12,.cls-5{stroke-miterlimit:10;}.cls-1,.cls-11,.cls-12{stroke-width:2px;}.cls-2{fill:url(#未命名的渐变_110);}.cls-3{fill:url(#未命名的渐变_123);}.cls-4{fill:#4c4c4c;}.cls-12,.cls-5{fill:none;}.cls-5{stroke:#000;}.cls-6{fill:#6b1c21;}.cls-7{fill:#912702;}.cls-8{fill:#dd986e;}.cls-9{fill:#dcb596;}.cls-10{fill:#bb7b6c;}.cls-11{fill:#cee0b1;opacity:0.5;}.cls-11,.cls-12{stroke:#047a3f;}.cls-13{fill:#cd3641;}.cls-14{fill:#ff0;}</style><linearGradient id="未命名的渐变_110" x1="240.87" y1="188.95" x2="240.87" y2="507.9" gradientUnits="userSpaceOnUse"><stop offset="0" stop-color="#005fe3"/><stop offset="0.03" stop-color="#267cd1"/><stop offset="0.14" stop-color="#40d3fe"/><stop offset="0.16" stop-color="#64dbfe"/><stop offset="0.19" stop-color="#88e4fe"/><stop offset="0.22" stop-color="#a8ebff"/><stop offset="0.26" stop-color="#c4f1ff"/><stop offset="0.29" stop-color="#daf6ff"/><stop offset="0.34" stop-color="#ebfaff"/><stop offset="0.4" stop-color="#f6fdff"/><stop offset="0.48" stop-color="#fdffff"/><stop offset="0.7" stop-color="#fff"/></linearGradient><linearGradient id="未命名的渐变_123" x1="240.88" y1="375.2" x2="240.88" y2="305.73" gradientUnits="userSpaceOnUse"><stop offset="0" stop-color="#5e5d5b"/><stop offset="0.05" stop-color="#72716f"/><stop offset="0.1" stop-color="#82817f"/><stop offset="0.16" stop-color="#8b8a88"/><stop offset="0.25" stop-color="#8e8d8b"/><stop offset="0.4" stop-color="#776f6b"/><stop offset="0.66" stop-color="#534039"/><stop offset="0.79" stop-color="#452e26"/><stop offset="0.81" stop-color="#3e2721"/><stop offset="0.93" stop-color="#210b0a"/><stop offset="1" stop-color="#160002"/></linearGradient></defs><g id="图层_4" data-name="图层 4"><circle class="cls-1" cx="209.93" cy="209.93" r="208.93"/><path class="cls-2" d="M400.35,231.7a158.73,158.73,0,0,1-18.16,74H99.57a159.48,159.48,0,1,1,300.78-74Z" transform="translate(-31.13 -21.77)"/><path class="cls-3" d="M99.57,305.67H382.19a159.52,159.52,0,0,1-282.62,0Z" transform="translate(-31.13 -21.77)"/></g><g id="文字路径"><path class="cls-4" d="M58.58,170.66a1.09,1.09,0,0,1,.18.88c0,.38-.11.75-.17,1.11a5.14,5.14,0,0,1-.42,1.26c-.22.48-.47,1-.75,1.45a12.76,12.76,0,0,1-1,1.39,6.2,6.2,0,0,1-1.08,1.09,7.12,7.12,0,0,1-1.77.8,2.67,2.67,0,0,1-1.83,0,2.73,2.73,0,0,1-1.24-1,2.3,2.3,0,0,1-.33-1.67,4.61,4.61,0,0,1,1.07-2.3A5.41,5.41,0,0,1,53.94,172l1.32-.41a8,8,0,0,0,1.35-.66,3.73,3.73,0,0,1,1.38-.55A.71.71,0,0,1,58.58,170.66Zm19.13-35.4a4.69,4.69,0,0,1,1.86,3.25,4.5,4.5,0,0,1-.25,1.78,8.84,8.84,0,0,1-1.15,2.24c-.19.26-.38.56-.58.88s-.41.67-.65,1a.52.52,0,0,0,.3.82q2.92,1.28,6.12,2.49c2.14.81,4.25,1.56,6.35,2.26,1.09.36,2,.67,2.59.93a6.55,6.55,0,0,1,1.41.74,2.16,2.16,0,0,1,.64.71,2.65,2.65,0,0,1,.21.88,16.42,16.42,0,0,1,.22,1.79,2.36,2.36,0,0,1-.13,1.09,1.3,1.3,0,0,1-.54.64,3.21,3.21,0,0,1-1,.35A2.64,2.64,0,0,1,92,157c-.57-.17-1.29-.42-2.17-.77s-1.9-.75-3-1.24-2.35-1-3.63-1.65q-3.21-1.51-5.07-2.34A30.18,30.18,0,0,0,75,149.76c-.33-.14-.57,0-.72.34s-.36.93-.63,1.69a18.46,18.46,0,0,0-.56,1.84.55.55,0,0,0,.37.66l3.35,1.64c1.09.53,1.85.93,2.25,1.18a14.69,14.69,0,0,1,3.85,3.3,10.35,10.35,0,0,1,1.88,3.49,5.66,5.66,0,0,1,.08,3.15,4.11,4.11,0,0,1-1.59,2.32c-.37.27-.4.56-.1.85a5.46,5.46,0,0,1,1.28,2.25,9.35,9.35,0,0,1,.49,3.39,6.09,6.09,0,0,1-.62,2.68,7.89,7.89,0,0,1-1.67,2.28,8.38,8.38,0,0,1-2.41,1.6,6.67,6.67,0,0,1-2.87.54c-.59,0-.88-.14-.89-.33s.14-.4.45-.62a5.39,5.39,0,0,0,1.69-1.95,6.54,6.54,0,0,0,.73-2.38,5.06,5.06,0,0,0-.31-2.29,3.87,3.87,0,0,0-1.39-1.82,13.51,13.51,0,0,0-2-1.21c-.86-.44-1.86-.94-3-1.49-.29-.12-.48-.16-.59-.11s-.15.17-.15.38a1.11,1.11,0,0,1-.06.36,3.55,3.55,0,0,0-.09.47,9.06,9.06,0,0,1-.85,2.91,1.65,1.65,0,0,1-1.5.78c-1.24,0-2-.34-2.35-1A3.49,3.49,0,0,1,67,172q0-.24.24-1.05c.13-.54.26-1.15.37-1.83a.52.52,0,0,0-.37-.66l-3.71-1.52c-.44-.18-.7-.06-.8.37q-.27,1-.42,1.65c-.1.45-.17.83-.22,1.15-.18,1.29-.6,2-1.25,2S59.6,171.81,59,171a4.42,4.42,0,0,1-.65-2,1.84,1.84,0,0,1,.31-1.53A2,2,0,0,0,59,167a7.29,7.29,0,0,0,.39-.79.52.52,0,0,0-.32-.77c-.89-.33-1.66-.6-2.31-.83s-1.06-.34-1.22-.37c-1.87-.42-3-1-3.34-1.82s.08-1.79,1.31-3c.43-.42.78-.74,1.07-1a1.69,1.69,0,0,1,.88-.37,2.26,2.26,0,0,1,1.08.25c.41.19.95.47,1.61.82q.42.24,1.29.66c.59.29,1.08.51,1.48.67s.61.07.75-.26l.63-1.24a8.23,8.23,0,0,1,.58-.94,2.26,2.26,0,0,1,1-.84A2.07,2.07,0,0,1,65,156.9c1,.17,1.18,1.17.43,3l-.61,1.47a.52.52,0,0,0,.33.77l2.73,1.12a1,1,0,0,0,.59.12c.1,0,.17-.23.22-.55.12-.5.24-.94.35-1.32s.24-.8.39-1.25a3,3,0,0,1,.4-.91.69.69,0,0,1,.68-.17,1.3,1.3,0,0,1,.74.52,7.35,7.35,0,0,1,.64,1.25,3.81,3.81,0,0,1,.31,1.5c0,.63,0,1.37,0,2.21a.56.56,0,0,0,.36.53q2.81,1.09,4.52,1.82t2.61,1.17c.62.26.9.05.83-.61a8.44,8.44,0,0,0-1.32-3.64,10,10,0,0,0-2.48-2.65,28,28,0,0,0-6-3.27,29.37,29.37,0,0,0-6.55-1.83c-2.13-.32-3.24-1.12-3.36-2.4a2.6,2.6,0,0,1,.56-1.65A3,3,0,0,1,62.82,151a.42.42,0,0,0,.36-.43,9.67,9.67,0,0,0-.09-3.13,8.84,8.84,0,0,0-.75-2.44,6.1,6.1,0,0,1-.76-2.65,2.88,2.88,0,0,1,.94-1.81,8.31,8.31,0,0,1,1.27-1.23,4.9,4.9,0,0,1,1.35-.82,5,5,0,0,1,1.55-.26,1.37,1.37,0,0,1,1,.43,1.9,1.9,0,0,1,.4,1.28,7.85,7.85,0,0,1-.37,2.3c-.24.8-.44,1.54-.6,2.24s-.31,1.37-.44,2a23.11,23.11,0,0,1-.5,2.32,13.43,13.43,0,0,1-.6,1.76c-.18.44,0,.7.38.79a15.5,15.5,0,0,1,1.64.52c.55.21,1.08.41,1.59.62a.52.52,0,0,0,.77-.32c.55-1.43,1.08-2.86,1.61-4.29L73,144c.43-1.16.82-2.15,1.16-3s.56-1.37.68-1.66.26-.64.43-1,.32-.8.49-1.2.31-.77.42-1.1a3.36,3.36,0,0,0,.19-.69C76.47,134.67,76.91,134.63,77.71,135.26Zm-12.8,40.18c.4-.56.78-.79,1.14-.68s.52.63.46,1.59a9.3,9.3,0,0,1-.25,1.78,13.18,13.18,0,0,1-.66,2,22.94,22.94,0,0,1-1.18,2.42c-.49.88-1.11,1.92-1.85,3.1a4.3,4.3,0,0,1-2,1.92,3.73,3.73,0,0,1-2.31-.12,1.94,1.94,0,0,1-1.45-1.52,3.51,3.51,0,0,1,.14-2.14,7.36,7.36,0,0,1,1.38-2.18,14.56,14.56,0,0,1,2.6-2.06,11.55,11.55,0,0,0,2.26-1.85A17.38,17.38,0,0,0,64.91,175.44Zm6.81.82a14.57,14.57,0,0,1,3.13,3.26,15.73,15.73,0,0,1,2.24,5.58,4.91,4.91,0,0,1,.11,2.21,3.85,3.85,0,0,1-.91,1.6,3.26,3.26,0,0,1-4,.59,1.53,1.53,0,0,1-.59-.66,4.35,4.35,0,0,1-.38-1.24,13,13,0,0,1-.2-2.09c0-.81,0-1.65-.11-2.53s-.14-1.71-.22-2.49-.18-1.5-.29-2.16-.21-1.2-.3-1.62c-.16-.62-.11-1,.18-1S71.11,175.79,71.72,176.26Z" transform="translate(-31.13 -21.77)"/><path class="cls-4" d="M90.7,112.64c.86-.14,1.37,0,1.55.39s0,.86-.61,1.39a20.3,20.3,0,0,1-4.49,3.24,13.61,13.61,0,0,1-4.92,1.59,3.6,3.6,0,0,1-2.78-1c-.76-.68-.8-1.52-.11-2.54a5,5,0,0,1,2.17-1.51,18.28,18.28,0,0,1,5.17-1c.47,0,1.12-.15,1.95-.28Zm5.35,6.24c.73-.4,1.24-.45,1.54-.13s.19.88-.32,1.69a22,22,0,0,1-2.89,3.48,42.41,42.41,0,0,1-5,4.18q-4.73,3.47-6.32.46a2.3,2.3,0,0,1-.08-2,5.45,5.45,0,0,1,2.25-2.26c.48-.31,1.11-.66,1.88-1.06s1.55-.76,2.34-1.12c.51-.22,1.09-.49,1.73-.79s1.26-.61,1.89-.93,1.2-.61,1.74-.9Zm33.37-21a23.25,23.25,0,0,1,.57,2.64,10.18,10.18,0,0,1,.14,2.25,5.35,5.35,0,0,1-1.24,3,14,14,0,0,1-4,2.88,20.85,20.85,0,0,0-4.14,2.88l-3.65,3.31c-.26.24-.65.61-1.16,1.13s-1,1.07-1.56,1.66l-1.48,1.68a12.36,12.36,0,0,0-.94,1.14c-.91,1.2-1.64,2.21-2.2,3s-1,1.51-1.38,2.09a13,13,0,0,0-.8,1.43c-.17.37-.3.7-.4,1-.67,2.24-1.56,3.06-2.65,2.46a2.23,2.23,0,0,1-.87-1.2,7.8,7.8,0,0,1-.33-2.7,6.14,6.14,0,0,1,.45-2.64,2.58,2.58,0,0,1,.92-1.12c.26-.18.52-.39.78-.61a14.21,14.21,0,0,0,1.3-1.57c.34-.43.83-1,1.48-1.8s1.23-1.42,1.73-2a1.33,1.33,0,0,0,.46-.93c0-.23-.27-.56-.74-1-.95-.89-1.94-1.81-3-2.75s-2-1.88-3-2.83l-2.88-2.67c-.91-.84-1.74-1.58-2.47-2.23a.87.87,0,0,0-1.38.12c-1,1.2-1.83,2.21-2.45,3a16.56,16.56,0,0,0-1.64,2.65,3.16,3.16,0,0,1-1.15,1.47,1.29,1.29,0,0,1-1,0,2.54,2.54,0,0,1-1.42-1.42,3.69,3.69,0,0,1,0-2.47A6.74,6.74,0,0,1,90,106a2.33,2.33,0,0,1,.79-.72,7.14,7.14,0,0,0,1.39-.94,10.85,10.85,0,0,0,1.19-1.43c.44-.61,1.09-1.44,2-2.48s1.77-2.09,2.68-3.15,1.76-2,2.55-2.87,1.31-1.4,1.57-1.64q.92-.84,1.41-1.32l1.36-1.27a5,5,0,0,1,1.28-.95.75.75,0,0,1,.81.2,5.22,5.22,0,0,1,.81.87,1.49,1.49,0,0,1,.27.84,2.07,2.07,0,0,1-.33,1,11.6,11.6,0,0,1-1,1.48l-.78.93q-.51.61-1.14,1.32l-1.31,1.48-1.27,1.43a1.34,1.34,0,0,0-.45.86c0,.23.19.49.55.81.77.73,1.67,1.56,2.72,2.49l3.18,2.82c1.07,1,2.11,1.87,3.13,2.74s1.89,1.61,2.62,2.21c.53.47,1.11.35,1.73-.36.87-.91,1.79-1.9,2.75-3s2-2.11,3-3.15,2.11-2.18,2.86-3,1.37-1.47,1.86-2,.89-.91,1.17-1.22l.68-.77c.32-.36.59-.5.81-.43S129.24,97.28,129.42,97.91Zm-27.34,24.75a20.81,20.81,0,0,1,.46,3.72,33.11,33.11,0,0,1-.06,4.37,9.43,9.43,0,0,1-1.16,3.94,6,6,0,0,1-1.82,2.17,2.52,2.52,0,0,1-1.49.26,2.11,2.11,0,0,1-1.23-.39,2.85,2.85,0,0,1-1-1.9,5.84,5.84,0,0,1,.79-2.89,37.58,37.58,0,0,0,1.72-4.24,56.22,56.22,0,0,0,1.59-5.45c.21-.82.58-1.17,1.11-1.07S101.87,121.78,102.08,122.66Z" transform="translate(-31.13 -21.77)"/><path class="cls-4" d="M181.81,70.49a16.42,16.42,0,0,1-1.45,5.05,8.32,8.32,0,0,1-2.41,3,6,6,0,0,1-3.1,1.22,8.52,8.52,0,0,1-3.52-.44q-3.41-1.16-8.33-2.54t-10.56-2.92q-.24-.07-.39.21a1.37,1.37,0,0,0-.1.73,24.22,24.22,0,0,1,0,5.24,21.76,21.76,0,0,1-1,4.75A21.2,21.2,0,0,1,149.09,89a17.54,17.54,0,0,1-2.55,3.37,43.45,43.45,0,0,1-4.39,4.12,13.66,13.66,0,0,1-3.62,2.18,5.63,5.63,0,0,1-3.05.34,5.79,5.79,0,0,1-2.69-1.38c-.62-.47-.94-.85-.95-1.16s.27-.62.86-1a32,32,0,0,0,2.71-1.74c1.05-.74,2.14-1.59,3.25-2.54a40.63,40.63,0,0,0,3.21-3.1,22,22,0,0,0,2.58-3.32,14.45,14.45,0,0,0,1.31-12.73c-.15-.51-.46-.63-.94-.36-2.06,1.23-4.08,2.51-6,3.82a58.77,58.77,0,0,0-4.84,3.56q-2.28,1.88-3.24.25a2.82,2.82,0,0,1-.48-1.73,5.59,5.59,0,0,1,.84-2.25,5.16,5.16,0,0,1,1.2-1.61,3,3,0,0,1,1.46-.41,3.59,3.59,0,0,0,1-.41c.5-.25,1.2-.68,2.13-1.28s1.86-1.19,3-1.87l3.2-1.91c.44-.25.52-.64.21-1.2l-.78-1.35c-.28-.45-.58-.9-.92-1.35a13.76,13.76,0,0,1-1.81-2.77,1.9,1.9,0,0,1,.08-1.8,3.27,3.27,0,0,1,1.75-1.17,5.7,5.7,0,0,1,2.69-.21,2.47,2.47,0,0,1,1.53.94A17.13,17.13,0,0,1,147.76,62c.16.27.31.56.45.86s.29.59.45.87a.73.73,0,0,0,.67.37,1.52,1.52,0,0,0,.74-.14q3.54-1.89,7-3.56t6.59-3a5.12,5.12,0,0,1,1.58-.51c.29,0,.59.27.89.82a1.8,1.8,0,0,1,.2,1.65A3.54,3.54,0,0,1,165,60.77a18.62,18.62,0,0,1-1.74,1.13c-.78.45-1.68,1-2.7,1.52s-2.12,1.15-3.32,1.74-2.4,1.19-3.61,1.77c-.36.16-.81.37-1.36.65s-1,.5-1.28.68-.39.32-.36.5.19.31.45.39A82.94,82.94,0,0,0,167.46,71a50.12,50.12,0,0,0,12.38-1.46,2.52,2.52,0,0,1,1.66-.11C181.79,69.53,181.89,69.9,181.81,70.49Z" transform="translate(-31.13 -21.77)"/><path class="cls-4" d="M231.78,43.39a20.68,20.68,0,0,1,1.05,4.71,7,7,0,0,1-.28,3.19,2.65,2.65,0,0,1-.8,1.1,4.26,4.26,0,0,1-1.34.41c-.66.11-1.09.08-1.3-.11a2.17,2.17,0,0,1-.4-1.4,21.62,21.62,0,0,0-.36-2.6,17.72,17.72,0,0,0-.53-2.21,2.4,2.4,0,0,0-1-1.29,3.32,3.32,0,0,0-2.08-.39c-1.5.1-2.86.23-4.09.41s-2.62.39-4.17.66c-2.67.46-5.3,1-7.88,1.51s-5,1.08-7.25,1.59-4.25,1-6,1.46-3.15.86-4.17,1.2a3.77,3.77,0,0,0-1.85,1.22,2.7,2.7,0,0,0-.59,2c0,.67.11,1.43.21,2.27s.22,1.59.33,2.25a2.44,2.44,0,0,1-.16,1.64,1.63,1.63,0,0,1-.89.78,1.47,1.47,0,0,1-1.12-.07,1.71,1.71,0,0,1-.88-.93,38.83,38.83,0,0,1-1.91-5.69,11,11,0,0,1-.35-4.58q.63-3.65,4.33-2.72l.56.17a1.46,1.46,0,0,0,.43,0,4,4,0,0,0,.65-.08c.27,0,.63-.13,1.09-.25l2.25-.48c.74-.15,1.45-.32,2.13-.52.89-.19.89-.41,0-.66a8.46,8.46,0,0,1-2.75-1.32,4.11,4.11,0,0,1-1.51-1.83,3.14,3.14,0,0,1-.08-1.67,2.6,2.6,0,0,1,.85-1.46,3.69,3.69,0,0,1,1.31-.77,2.77,2.77,0,0,1,1.45-.1,3,3,0,0,1,1.31.64,2.93,2.93,0,0,1,.87,1.41,19,19,0,0,0,.93,2.29,7.54,7.54,0,0,0,.94,1.58,1.34,1.34,0,0,1,.41.65.34.34,0,0,0,.23.29,2.07,2.07,0,0,0,.71,0q3-.63,5.7-1.16c1.8-.35,3.59-.65,5.39-.88a2,2,0,0,0,.85-.29,2.57,2.57,0,0,0,.58-.79,17.61,17.61,0,0,0,1.4-3.36,11.36,11.36,0,0,0,.46-2.84,5.37,5.37,0,0,1,.34-2,1.94,1.94,0,0,1,1.21-.84,3.26,3.26,0,0,1,2.83.11,2.82,2.82,0,0,1,1.36,2.34,3.59,3.59,0,0,1-.22,1.83,5.89,5.89,0,0,1-1.3,1.85c-.44.43-.82.83-1.14,1.18a13.54,13.54,0,0,0-.86,1.08c-.36.46-.5.75-.42.85s.41.13,1,.07c.79-.06,1.58-.14,2.38-.24s1.66-.18,2.57-.26a11.5,11.5,0,0,0,2.6-.51,6.62,6.62,0,0,0,1.85-1.1A3.37,3.37,0,0,1,228,40a2.4,2.4,0,0,1,1.44.35,3.82,3.82,0,0,1,1.45,1.13A8.93,8.93,0,0,1,231.78,43.39Zm-2.06,12a1.13,1.13,0,0,1-.22,1,3.64,3.64,0,0,1-1.1.73,11.06,11.06,0,0,1-1.5.47c-.71.18-1.48.36-2.31.52s-1.66.32-2.5.46a15,15,0,0,1-2.14.25q-.48,0-1.35.15c-.59.08-1.27.19-2,.32-.43.07-.68.19-.75.34a1.75,1.75,0,0,0,0,.93,16.72,16.72,0,0,1,.5,4.25,6.71,6.71,0,0,1-.74,2.68,7.87,7.87,0,0,1-3.81,3.41,16.12,16.12,0,0,1-5.42,1.39,17,17,0,0,1-5.41-.41,7.82,7.82,0,0,1-3.88-2c-.54-.58-.7-1-.46-1.29s.72-.33,1.47-.14a12.72,12.72,0,0,0,3.44.3,13.34,13.34,0,0,0,3.25-.38,7.88,7.88,0,0,0,3-1.53,4.6,4.6,0,0,0,1.57-2.67,7.34,7.34,0,0,0,0-1.08q0-.66,0-1.2c0-.52-.1-.82-.27-.91a2.22,2.22,0,0,0-1.19.08c-.73.17-1.44.32-2.13.46s-1.35.31-2,.49L199.59,63c-1.18.3-2.18.57-3,.82s-1.5.46-2,.65a7,7,0,0,0-1.36.62,1.91,1.91,0,0,1-1.87.3,1.41,1.41,0,0,1-.78-1.4,5.46,5.46,0,0,1,.42-2.08A3.72,3.72,0,0,1,192,60.52a4,4,0,0,1,1.22-.75,3.73,3.73,0,0,1,1.34-.05,9.79,9.79,0,0,0,1.82,0,11.25,11.25,0,0,0,2.12-.39c.38-.11.9-.24,1.58-.4s1.41-.31,2.22-.47l2.49-.49,2.38-.45a1.79,1.79,0,0,0,1-.41c.14-.19,0-.49-.31-.91a1.61,1.61,0,0,1-.49-1.29,1.16,1.16,0,0,1,.66-.84,2.63,2.63,0,0,1,1.51-.26,2.63,2.63,0,0,0,.9,0,2,2,0,0,0,.7-.45,7.36,7.36,0,0,0,1.19-1.11c.55-.73.37-1.08-.54-1a10.44,10.44,0,0,0-2.51.37,22.12,22.12,0,0,0-2.78.93,23.41,23.41,0,0,0-2.76,1.35,28.88,28.88,0,0,0-2.48,1.57,3.11,3.11,0,0,1-1.52.56,2.62,2.62,0,0,1-1.55-.27,1.34,1.34,0,0,1-.86-1.53,5.78,5.78,0,0,1,1.88-2.6,6.68,6.68,0,0,1,2.1-1.53,3.44,3.44,0,0,1,1.49-.23,4.65,4.65,0,0,0,2.25-.15c.23-.08.58-.17,1.06-.28s1-.19,1.57-.27,1.12-.13,1.65-.16a7.26,7.26,0,0,1,1.23,0,4.62,4.62,0,0,0,1.59-.15,5.3,5.3,0,0,0,1.67-.71q2.54-1.69,5.5.25a2.6,2.6,0,0,1,1,1.41,3,3,0,0,1-.09,1.9,1.83,1.83,0,0,1-.95,1.06,3.46,3.46,0,0,1-1.55.39,5.83,5.83,0,0,0-1.74.36,12.47,12.47,0,0,0-2.16,1c-.44.23-.68.42-.71.57s.1.33.42.55a2.65,2.65,0,0,0,1,.52,4.22,4.22,0,0,0,1-.08c1-.18,2.09-.35,3.24-.53l3.41-.53q1.69-.27,3.27-.48l2.81-.37C229.1,54,229.55,54.4,229.72,55.37ZM209.34,42.49c.31,1.14-.32,1.59-1.93,1.35a4.42,4.42,0,0,1-2.28-.89,10.42,10.42,0,0,1-2-2.51,2.69,2.69,0,0,1-.48-1.23,4.52,4.52,0,0,1,.12-1.58,1.85,1.85,0,0,1,.56-1.09,2.58,2.58,0,0,1,1-.59,2.88,2.88,0,0,1,1.24-.13,5.92,5.92,0,0,1,1.21.27,2.74,2.74,0,0,1,1.47,1.06,6.31,6.31,0,0,1,.46,2.14c.05.47.12,1,.24,1.7A13.45,13.45,0,0,0,209.34,42.49Z" transform="translate(-31.13 -21.77)"/><path class="cls-4" d="M296.27,68.44a9.19,9.19,0,0,1-1.83,1.64,15.14,15.14,0,0,1-2.25,1.27,5,5,0,0,1-4.14.23q-2-.78-4.63-4.29-1.77-2.27-3-3.92c-.83-1.1-1.58-2-2.25-2.83s-1.27-1.5-1.82-2.13-1.12-1.24-1.7-1.82l-.46-.49-.4-.43c-.56-.73-1-1.07-1.33-1s-.55.53-.66,1.47c-.17,1.21-.32,2.34-.46,3.4s-.24,2-.31,2.94-.22,1.93-.35,2.6a6.39,6.39,0,0,1-.56,1.7,3.94,3.94,0,0,1-1,1.22A11.65,11.65,0,0,1,267.5,69a5,5,0,0,1-2.48.66,8.7,8.7,0,0,1-3.3-.8,10.75,10.75,0,0,1-3.43-2.4,8.14,8.14,0,0,1-2.08-3.26c-.41-1.14-.5-1.81-.27-2s.7,0,1.39.63a9.78,9.78,0,0,0,2.57,1.63,6.21,6.21,0,0,0,2.31.51,2.76,2.76,0,0,0,1.77-.57,2.7,2.7,0,0,0,1-1.61c.28-1.15.53-2.32.78-3.52l.69-3.41a.62.62,0,0,0-.22-.67.59.59,0,0,0-.7.09c-.85.54-1.69,1-2.53,1.49A22.93,22.93,0,0,1,260,57.15c-1.13.43-2.47.9-4,1.42s-3.43,1.11-5.66,1.77a10.19,10.19,0,0,1-3.79.47,5,5,0,0,1-2.49-.87,2.48,2.48,0,0,1-.8-3.43c.48-.91,1.5-1.4,3.06-1.46a40.58,40.58,0,0,0,5.42-.37q2.91-.37,5.73-.92t5.3-1.26a35,35,0,0,0,4.16-1.45.66.66,0,0,0,.31-.43c.21-1,.38-1.94.53-2.93s.27-1.92.38-2.78a.52.52,0,0,0-.49-.68l-5.17-.76q-2.13-.3-3.57-.45t-2.31-.18a9.61,9.61,0,0,0-1.41.06,7.89,7.89,0,0,1-3.48-.16c-.77-.29-1.1-.73-1-1.31a3,3,0,0,1,1-1.75,7,7,0,0,1,2.61-1.29,7.23,7.23,0,0,1,1.94-.3,1.9,1.9,0,0,1,1.28.36,5.56,5.56,0,0,0,2,.82,37.51,37.51,0,0,0,4.19.71c.7.12,1.4.23,2.1.32s1.42.21,2.16.34q.58.09.69-.54c0-.48.09-.94.14-1.39a10,10,0,0,0,.08-1.33q.26-4,3.64-2.44a8.14,8.14,0,0,1,1.81,1,2.85,2.85,0,0,1,.87,1,2.17,2.17,0,0,1,.16,1.16,6.53,6.53,0,0,1-.31,1.36,2.42,2.42,0,0,0-.25.73,8.37,8.37,0,0,1-.21.92c-.15.42,0,.66.47.74l2.74.46c1.73.38,3.48.73,5.23,1.07s3.87.71,6.31,1.12a3.59,3.59,0,0,1,1.86.88,1.55,1.55,0,0,1,.64,1.34,1.8,1.8,0,0,1-.35.84,1.41,1.41,0,0,1-.91.41,6.81,6.81,0,0,1-1.79,0,27.24,27.24,0,0,1-2.93-.55l-2.57-.56c-.95-.2-1.93-.38-3-.56l-3.14-.53-3-.5a.52.52,0,0,0-.68.48c-.05.31-.12.74-.22,1.28s-.18,1.11-.28,1.69-.19,1.15-.28,1.69-.17,1-.23,1.34,0,.5.2.57a2.93,2.93,0,0,0,1.35-.19,10.08,10.08,0,0,0,3.48-1.66,6,6,0,0,0,1.74-1.95,2.14,2.14,0,0,1,1.15-1,1.6,1.6,0,0,1,1.49.22,11,11,0,0,1,1.35,1,9.39,9.39,0,0,1,1.1,1.12c1,1.36.67,2.41-1,3.12a15.08,15.08,0,0,1-2.5.6,24,24,0,0,1-3.57.23c-.88,0-1,.27-.43.77l1,.77c.42.31.94.67,1.55,1.1q1.71,1.18,3.93,2.58t4.48,2.75c1.5.92,3,1.76,4.36,2.54s2.6,1.4,3.6,1.89c.63.31,1,.6,1,.89S296.73,67.88,296.27,68.44ZM263.8,49.8c.51.52.69.91.52,1.16s-.69.33-1.59.22a8.51,8.51,0,0,1-3.56-1.08A6.78,6.78,0,0,1,257,47.76a2.65,2.65,0,0,1-.41-1.3,2.35,2.35,0,0,1,.23-1.19A2.43,2.43,0,0,1,258.22,44a1.82,1.82,0,0,1,1.73.23,7.34,7.34,0,0,1,1.11.85,2.75,2.75,0,0,1,.68.95,11.45,11.45,0,0,0,.89,2A7.43,7.43,0,0,0,263.8,49.8Zm23.8-10.47c.43,1.23.09,2-1,2.34q-4.69,1.24-6.62-.15a1.19,1.19,0,0,1-.56-.73.41.41,0,0,1,.28-.46A6.56,6.56,0,0,0,281,39.6c.45-.33,1.11-.83,2-1.52a2.68,2.68,0,0,1,1.53-.55,3.57,3.57,0,0,1,1.61.36,3.5,3.5,0,0,1,.92.57A2.18,2.18,0,0,1,287.6,39.33Z" transform="translate(-31.13 -21.77)"/><path class="cls-4" d="M345.63,96.45a28.2,28.2,0,0,1-5,2.1,7.06,7.06,0,0,1-4.22,0,11.83,11.83,0,0,1-4.31-2.77,49.71,49.71,0,0,1-5.2-6c-.52-.69-1.06-1.38-1.63-2.07s-1.24-1.49-2-2.41L320.38,82c-1.1-1.23-2.43-2.71-4-4.42a6.25,6.25,0,0,0-1.66-1.45,1.47,1.47,0,0,0-1.11,0,32,32,0,0,1-3.5,1c-1.17.25-2.29.44-3.35.58a26.54,26.54,0,0,1-2.91.21,13.53,13.53,0,0,1-2.19-.12,5.6,5.6,0,0,1-3.44-1.89A4.91,4.91,0,0,1,297,72.39c.05-.74.17-1.17.37-1.28s.64,0,1.34.26a22.51,22.51,0,0,0,5,1.33,21,21,0,0,0,4.79.17,19.89,19.89,0,0,0,4.33-.82,15.42,15.42,0,0,0,3.57-1.6c1.1-.7,2-.67,2.72.08a1.62,1.62,0,0,1,.53,1.84,5.29,5.29,0,0,1-2.25,2.26q-.19.11,0,.42a3.77,3.77,0,0,0,.9.94c.57.44,1.13.87,1.7,1.27s1,.74,1.36,1a.76.76,0,0,0,.52.22c.12,0,.28-.2.47-.55.36-.74.75-1.51,1.16-2.29s.83-1.53,1.26-2.24a.57.57,0,0,0-.26-.88l-3.16-1.6c-1-.5-1.79-.9-2.43-1.21-.47-.21-1.06-.44-1.77-.7s-1.47-.51-2.27-.77-1.6-.5-2.4-.72-1.51-.38-2.12-.49a6.61,6.61,0,0,1-2.73-.93,2.79,2.79,0,0,1-1-1.7,1.71,1.71,0,0,1,.9-1.69,3.4,3.4,0,0,1,2.44-.58,11.32,11.32,0,0,1,2.58.51,4.23,4.23,0,0,1,1.35.91,14.32,14.32,0,0,0,2.24,1.57A20.49,20.49,0,0,0,319,66.56c1,.41,2.12.91,3.41,1.5s2.65,1.25,4.09,2,2.91,1.44,4.43,2.23,3,1.58,4.45,2.38c3,1.63,5.21,2.91,6.75,3.84s2.64,1.66,3.35,2.18a2.4,2.4,0,0,1,.92,1,1.42,1.42,0,0,1-.34,1,1.28,1.28,0,0,1-.94.6,3.34,3.34,0,0,1-1.71-.57l-1.62-.89c-.88-.49-1.92-1-3.1-1.67s-2.41-1.29-3.68-2l-3.42-1.88a2,2,0,0,0-1-.35c-.2,0-.42.26-.67.71a2.3,2.3,0,0,0-.35,1,.53.53,0,0,0,.33.45q1.77,1.05,3.86,2.22T337,82.05a5,5,0,0,1,1.63,1.2,1.11,1.11,0,0,1-.08,1.14,1.32,1.32,0,0,1-.95.79,4.13,4.13,0,0,1-1.91-.61c-.92-.46-2.08-1.08-3.47-1.84s-2.71-1.51-3.93-2.23a.77.77,0,0,0-.38-.11c-.11,0-.25.15-.4.42L326.83,82c-.21.38-.07.77.43,1.18q4.17,3.18,8.64,6.1t9.39,5.57C346.4,95.45,346.51,96,345.63,96.45ZM346.75,69c-.3.38-.69,1-1.19,1.74s-1.17,1.9-2,3.37a3.2,3.2,0,0,1-1.25,1.3,3.66,3.66,0,0,1-1.63.45,4.35,4.35,0,0,1-1.7-.29,3.92,3.92,0,0,1-1.46-1,5.82,5.82,0,0,0-.87-.81c-.36-.29-.7-.55-1-.77-.88-.53-1.79-1.06-2.73-1.6s-2-1.1-3.05-1.68-2.3-1.19-3.6-1.84l-4.29-2.12a1.75,1.75,0,0,0-1.1-.34,2.89,2.89,0,0,1-1.72-.1,2.41,2.41,0,0,1-1.14-.93,2.56,2.56,0,0,1-.41-1.41,2.68,2.68,0,0,1,.47-1.52c.13-.24.33-.66.59-1.26s.52-1.26.79-2,.51-1.46.73-2.19a17.79,17.79,0,0,0,.47-1.83,3.42,3.42,0,0,1,.45-1.13,5.66,5.66,0,0,1,.81-1,4,4,0,0,1,1-.74,1.35,1.35,0,0,1,1-.16,5.68,5.68,0,0,1,1.66.58,2.2,2.2,0,0,1,1,1.16,1.61,1.61,0,0,0,.81.85q5.26,3,8.49,4.83t5,2.76c1.2.64,2,1.06,2.5,1.28a3,3,0,0,0,1,.32,4,4,0,0,1,2.06.43,3.7,3.7,0,0,1,1.27,1.47,3.36,3.36,0,0,1,.4,2A5.28,5.28,0,0,1,346.75,69Zm-7.14,1.6a1.13,1.13,0,0,0,.28-.82c-.06-.19-.29-.4-.7-.62l-7.43-4q-3.42-1.81-7.23-3.7a.65.65,0,0,0-.5-.08c-.16.05-.35.28-.58.69a1.66,1.66,0,0,0-.3,1c0,.21.22.39.53.57,1,.55,2.09,1.13,3.28,1.76l3.59,1.91c1.22.65,2.41,1.27,3.59,1.87l3.29,1.67a2.44,2.44,0,0,0,1.36.35A1.37,1.37,0,0,0,339.61,70.64Zm2.43-4c.47-.87.33-1.51-.43-1.92-.95-.57-2-1.17-3.18-1.82l-3.7-2-3.94-2.14c-1.34-.71-2.63-1.4-3.87-2.09a.58.58,0,0,0-.57-.07,2.47,2.47,0,0,0-.55.87,3.13,3.13,0,0,0-.37,1.11c0,.17.17.33.44.48,2.44,1.21,4.89,2.46,7.36,3.78s4.93,2.66,7.4,4.06a1.6,1.6,0,0,0,.88.29C341.69,67.07,341.87,66.9,342,66.59Z" transform="translate(-31.13 -21.77)"/><path class="cls-4" d="M385.29,129.7a1.1,1.1,0,0,1-1,.34,3.72,3.72,0,0,1-1.2-.54,12.21,12.21,0,0,1-1.2-1c-.53-.5-1.09-1.06-1.66-1.68s-1.16-1.24-1.72-1.87a16.79,16.79,0,0,1-1.35-1.68c-.18-.26-.46-.62-.84-1.07s-.83-1-1.36-1.56c-.29-.32-.51-.48-.68-.46a1.86,1.86,0,0,0-.78.5,16.16,16.16,0,0,1-3.35,2.68,6.48,6.48,0,0,1-2.65.8,7.85,7.85,0,0,1-4.92-1.42,16.15,16.15,0,0,1-4.05-3.86,16.85,16.85,0,0,1-2.52-4.79,7.8,7.8,0,0,1-.35-4.37c.21-.77.5-1.13.86-1.08s.66.44.89,1.17a13.4,13.4,0,0,0,1.57,3.08,14.77,14.77,0,0,0,2.05,2.56,7.76,7.76,0,0,0,2.88,1.7,4.53,4.53,0,0,0,3.1-.08,9.49,9.49,0,0,0,.93-.56c.36-.24.7-.45,1-.63s.64-.52.63-.72-.25-.51-.7-1-1-1-1.53-1.56a18.82,18.82,0,0,0-1.45-1.4l-3.11-3c-.89-.84-1.65-1.55-2.29-2.11s-1.19-1-1.64-1.39a7.16,7.16,0,0,0-1.25-.82,1.93,1.93,0,0,1-1.24-1.43,1.41,1.41,0,0,1,.77-1.4,5.56,5.56,0,0,1,2-.74,3.61,3.61,0,0,1,1.77.16,3.87,3.87,0,0,1,1.28.63,3.52,3.52,0,0,1,.76,1.11,10.37,10.37,0,0,0,1,1.52,11.2,11.2,0,0,0,1.46,1.58c.29.27.68.64,1.17,1.13s1,1,1.58,1.63l1.74,1.85c.59.64,1.14,1.23,1.64,1.79a1.77,1.77,0,0,0,.9.65c.24,0,.44-.22.61-.74a1.61,1.61,0,0,1,.83-1.1,1.12,1.12,0,0,1,1.06.12,2.58,2.58,0,0,1,1,1.14,2.37,2.37,0,0,0,.48.76,1.87,1.87,0,0,0,.75.35,7.29,7.29,0,0,0,1.57.42c.91.08,1.11-.26.6-1a11.64,11.64,0,0,0-1.65-1.93,23.31,23.31,0,0,0-2.26-1.86,24.37,24.37,0,0,0-2.61-1.62c-.92-.5-1.8-.92-2.65-1.28a3,3,0,0,1-1.28-1,2.53,2.53,0,0,1-.59-1.45,1.34,1.34,0,0,1,.83-1.54,5.81,5.81,0,0,1,3.21.22,6.64,6.64,0,0,1,2.42,1,3.52,3.52,0,0,1,1,1.14,4.75,4.75,0,0,0,1.32,1.83,8.22,8.22,0,0,1,.79.76c.35.35.7.74,1.07,1.18s.7.88,1,1.31a8.91,8.91,0,0,1,.66,1,5,5,0,0,0,1,1.27,5.35,5.35,0,0,0,1.49,1q2.77,1.23,2.71,4.79a2.6,2.6,0,0,1-.66,1.61,2.94,2.94,0,0,1-1.66.94,1.8,1.8,0,0,1-1.4-.25,3.51,3.51,0,0,1-1.16-1.11,5.57,5.57,0,0,0-1.22-1.28,14.81,14.81,0,0,0-2-1.32c-.43-.24-.72-.34-.86-.29s-.22.26-.24.65a2.61,2.61,0,0,0,.1,1.14,3.94,3.94,0,0,0,.59.78q1,1.14,2.16,2.46l2.26,2.61c.75.86,1.46,1.7,2.14,2.52l1.8,2.19Q386.39,128.71,385.29,129.7Zm11.25-4.61a21.32,21.32,0,0,1-3.43,3.39,6.9,6.9,0,0,1-2.86,1.45,2.47,2.47,0,0,1-1.35-.1,3.85,3.85,0,0,1-1.06-.91c-.45-.5-.65-.89-.6-1.16s.36-.64,1-1.08a22.59,22.59,0,0,0,2-1.68,20.1,20.1,0,0,0,1.59-1.63,2.41,2.41,0,0,0,.55-1.56,3.31,3.31,0,0,0-.77-2c-.88-1.22-1.72-2.31-2.52-3.26s-1.72-2-2.77-3.18q-2.73-3-5.47-5.88c-1.83-1.9-3.56-3.66-5.19-5.3s-3.1-3.07-4.42-4.32-2.4-2.2-3.23-2.89a3.75,3.75,0,0,0-2-.92,2.7,2.7,0,0,0-2,.54c-.55.38-1.16.84-1.81,1.38s-1.24,1-1.73,1.47a2.44,2.44,0,0,1-1.48.74,1.69,1.69,0,0,1-1.14-.34,1.51,1.51,0,0,1-.53-1,1.72,1.72,0,0,1,.32-1.23A38.2,38.2,0,0,1,361.45,91a10.93,10.93,0,0,1,3.7-2.73q3.42-1.39,4.6,2.22c.07.25.12.44.16.57a1.17,1.17,0,0,0,.19.39,4.16,4.16,0,0,0,.41.5c.18.21.45.47.79.8.55.56,1.09,1.11,1.6,1.65s1,1.06,1.57,1.53c.63.65.82.53.56-.35a8.37,8.37,0,0,1-.33-3,4.15,4.15,0,0,1,.75-2.26,3.14,3.14,0,0,1,1.37-1,2.58,2.58,0,0,1,1.69,0,3.67,3.67,0,0,1,1.34.7,2.73,2.73,0,0,1,.86,1.17,2.83,2.83,0,0,1-.58,2.94,18.5,18.5,0,0,0-1.45,2,7.37,7.37,0,0,0-.84,1.62,1.27,1.27,0,0,1-.33.7.31.31,0,0,0-.12.35,1.85,1.85,0,0,0,.4.58c1.43,1.47,2.77,2.88,4,4.21s2.45,2.71,3.6,4.11a2,2,0,0,0,.7.56,2.26,2.26,0,0,0,1,.07,17.24,17.24,0,0,0,3.59-.59,11.55,11.55,0,0,0,2.65-1.11,5.06,5.06,0,0,1,1.88-.78,1.9,1.9,0,0,1,1.35.58,3.25,3.25,0,0,1,1.41,2.46,2.81,2.81,0,0,1-1.26,2.4,3.81,3.81,0,0,1-1.67.78,6,6,0,0,1-2.25-.12c-.6-.15-1.14-.26-1.61-.34a11.31,11.31,0,0,0-1.37-.16c-.58-.06-.9,0-.95.09s.11.42.48.89c.46.64.95,1.27,1.46,1.9s1,1.3,1.58,2a10.9,10.9,0,0,0,1.82,1.93,6.84,6.84,0,0,0,1.91,1,3.42,3.42,0,0,1,1.34.78,2.37,2.37,0,0,1,.46,1.41,3.79,3.79,0,0,1-.18,1.82A9.14,9.14,0,0,1,396.54,125.09Zm-11.14-19.5c-.8.87-1.53.57-2.17-.92a4.29,4.29,0,0,1-.45-2.4,10.11,10.11,0,0,1,1.08-3,2.84,2.84,0,0,1,.79-1.06,5,5,0,0,1,1.4-.74,1.93,1.93,0,0,1,1.22-.1,2.68,2.68,0,0,1,1.05.56,2.91,2.91,0,0,1,.76,1,5.49,5.49,0,0,1,.42,1.17,2.73,2.73,0,0,1-.12,1.82,6.28,6.28,0,0,1-1.57,1.52c-.37.29-.81.65-1.31,1.1A12.94,12.94,0,0,0,385.4,105.59Z" transform="translate(-31.13 -21.77)"/><path class="cls-4" d="M415.62,149.17A12.58,12.58,0,0,1,412,149a16.08,16.08,0,0,1-3.83-1.49q-.87-.41-1.08-.27c-.13.08-.14.37,0,.87a5.31,5.31,0,0,1-.51,3.5,4.85,4.85,0,0,1-2.61,2.35,11.77,11.77,0,0,1-2.65.57,5.81,5.81,0,0,1-2.52-.32,7.4,7.4,0,0,1-2.39-1.51,12,12,0,0,1-2.23-2.93,1.47,1.47,0,0,0-.64-.59,1.51,1.51,0,0,0-1,.27c-1.45.71-2.61,1.24-3.46,1.59a7.31,7.31,0,0,1-2.1.58,1.63,1.63,0,0,1-1.27-.34,6.68,6.68,0,0,1-1-1.26,5.67,5.67,0,0,1-.62-1.37,1.2,1.2,0,0,1,.14-1,3.1,3.1,0,0,1,1.1-.89,18.16,18.16,0,0,1,2.23-1q5.67-2.07,10.46-4t9.32-4.23c.6-.3.92-.58,1-.83s-.14-.6-.54-1a4.89,4.89,0,0,1-1.16-1.88c-.07-.4.15-.75.66-1.06a2.25,2.25,0,0,1,1.68-.28,9.48,9.48,0,0,1,2.33,1.06,11.14,11.14,0,0,1,2.43,2.06,2.53,2.53,0,0,1,.53,1.8,5,5,0,0,0,.21,1.68,8.46,8.46,0,0,0,.78,1.81,4.56,4.56,0,0,1,.87,2.46,3,3,0,0,0,.18,1.14,2.76,2.76,0,0,0,.75,1.16,1.89,1.89,0,0,1,.37.93,2.61,2.61,0,0,1,0,1.15,2.28,2.28,0,0,1-.57,1A1.81,1.81,0,0,1,415.62,149.17Zm-4.85,43.32a8.78,8.78,0,0,1-6.2-.5,8.94,8.94,0,0,1-4.46-4.79,8.47,8.47,0,0,1-.63-2.36,29.36,29.36,0,0,1-.32-3.63,38.85,38.85,0,0,1,.09-4,16.26,16.26,0,0,1,.64-3.58,6.71,6.71,0,0,1,2.86-3.43,16.15,16.15,0,0,1,6.45-1.95c.57-.08.74-.37.52-.87s-.47-.66-.81-.55a35.92,35.92,0,0,1-5.75.75,15.09,15.09,0,0,1-4.84-.54,11.65,11.65,0,0,1-4-2.12A14.09,14.09,0,0,1,391,161a6.62,6.62,0,0,1-1.24-4.28,3.71,3.71,0,0,1,1.55-2.73c.61-.39.94-.32,1,.21a15.28,15.28,0,0,0,2.47,4.68,11.73,11.73,0,0,0,3.46,3,10.47,10.47,0,0,0,8.37.85c.54-.15.65-.5.32-1a9.88,9.88,0,0,0-.68-1.06c-.26-.36-.53-.71-.81-1.06a2.94,2.94,0,0,1-.91-1.21,2.11,2.11,0,0,1-.05-1.14,2,2,0,0,1,1.21-.94,2.11,2.11,0,0,1,1.74.31,8.77,8.77,0,0,1,1.21.72,3.47,3.47,0,0,1,1.25,1.55,8.31,8.31,0,0,1,.39,1.19c.07.27.22.68.44,1.25s.49,1.2.8,1.91.65,1.45,1,2.25a22.83,22.83,0,0,0,1.21,2.21c1,2,1.72,3.73,2.28,5.12a28.35,28.35,0,0,1,1,2.78,1.75,1.75,0,0,1-.21,1.6,1.68,1.68,0,0,1-1.29.59,1.71,1.71,0,0,1-.71-.08,1.59,1.59,0,0,1-.69-.56,8.23,8.23,0,0,1-.8-1.33,26.13,26.13,0,0,1-1-2.41,2.89,2.89,0,0,0-.49-.82,1.13,1.13,0,0,0-.75-.25,7,7,0,0,0-3.26.79,4.86,4.86,0,0,0-2.39,2.36,3.79,3.79,0,0,0-.25,2.23,27.2,27.2,0,0,0,.81,3.51,31.37,31.37,0,0,0,2,5.71,14.14,14.14,0,0,0,2.89,4c.51.59.75,1,.73,1.16S411.32,192.38,410.77,192.49Zm-7.58-42.77a2.53,2.53,0,0,0,1-1.79,6.45,6.45,0,0,0-.7-3,.5.5,0,0,0-.32-.28,1.31,1.31,0,0,0-.76.17l-2.25,1c-.78.34-1.58.73-2.42,1.18q-.64.28,0,.9a6.66,6.66,0,0,0,3.23,2A3.15,3.15,0,0,0,403.19,149.72Zm8.63-7.85a.68.68,0,0,0-.6-.42,6.07,6.07,0,0,0-1.92.55,11.62,11.62,0,0,0-2.28,1c-.33.23-.43.38-.31.46a8.18,8.18,0,0,0,2.57,1,3.13,3.13,0,0,0,1.79-.1,1.57,1.57,0,0,0,.9-1A2.13,2.13,0,0,0,411.82,141.87Zm9.49,38.86a3.66,3.66,0,0,1-2.41-.28,2.17,2.17,0,0,1-.66-1.74,1.29,1.29,0,0,1,.61-.84,3.5,3.5,0,0,1,1.33-.64,15,15,0,0,0,1.76-.67,10.77,10.77,0,0,0,1.14-.65,1.54,1.54,0,0,0,.8-.9,3.34,3.34,0,0,0-.2-1.42q-1.94-5.21-3.94-9.55t-3.61-7.31a3.49,3.49,0,0,0-.87-1.33,2.44,2.44,0,0,0-1.2-.48,17.92,17.92,0,0,0-2.15.32,15,15,0,0,0-2.13.64,1.69,1.69,0,0,1-1.11.12,1.18,1.18,0,0,1-.75-.54,2.46,2.46,0,0,1,.14-1.25A2.34,2.34,0,0,1,409,153c.31-.17.77-.42,1.39-.73s1.27-.61,1.95-.91l1.94-.8a6.63,6.63,0,0,1,1.33-.42c1.76-.2,2.86.06,3.3.79a3.45,3.45,0,0,1,.23,2.76,3.22,3.22,0,0,0,.14,1.74,20.82,20.82,0,0,0,1.16,2.59c.38.69.69,1.07.94,1.14a2.36,2.36,0,0,0,1.35-.46,5.7,5.7,0,0,1,2.24-.84,3.15,3.15,0,0,1,1.87.54,2.28,2.28,0,0,1,1,1.25,3.94,3.94,0,0,1,.22,1.7,4.18,4.18,0,0,1-.75,2.35,6.2,6.2,0,0,1-2.14,1.67c-.67.33-.88.79-.63,1.36.39.82.75,1.58,1.05,2.28s.58,1.3.84,1.79l.92,1.69a6.49,6.49,0,0,0,.6.94,4,4,0,0,1,1.19,1.77,2.49,2.49,0,0,1-.21,2.11,5.54,5.54,0,0,1-2.69,2.26A14.58,14.58,0,0,1,421.31,180.73Zm-1.05-8.81a1.2,1.2,0,0,1-.28.7,1.52,1.52,0,0,1-.58.44,1,1,0,0,1-.65.06.88.88,0,0,1-.52-.39,4.67,4.67,0,0,1-.79-1.07c-.32-.55-.64-1.15-1-1.8s-.64-1.32-1-2a9.68,9.68,0,0,1-.64-1.71c-.11-.25-.25-.59-.41-1a11.07,11.07,0,0,0-.58-1.27l-.66-1.22a3.5,3.5,0,0,0-.65-.91q-1.6-2.07-1.23-3a1.47,1.47,0,0,1,1-.78,3.48,3.48,0,0,1,1.8.06,2.2,2.2,0,0,1,1,.83,2.65,2.65,0,0,1,.46,1.44,3.74,3.74,0,0,0,.5,1.46,35.62,35.62,0,0,1,2.88,5.83A23.28,23.28,0,0,1,420.26,171.92Z" transform="translate(-31.13 -21.77)"/><path class="cls-4" d="M348.71,368.28a24.74,24.74,0,0,1,2.61,4.85,65.12,65.12,0,0,1,2.37,6.58c.73,2.37,1.35,4.77,1.88,7.21s.92,4.7,1.17,6.78l-4.7.91a50.36,50.36,0,0,0-1.17-6q-.78-3-1.73-5.7c-.64-1.77-1.27-3.34-1.89-4.69a18.27,18.27,0,0,0-1.61-3l-1.29-1.78-.71.52-1.51,2c-.48.62-1.08,1.42-1.81,2.4l-2.14-1.63,2.26-2.77c.7-.84,1.37-1.65,2-2.43l1.88-2.31c.62-.77,1.24-1.56,1.87-2.38l1.59.14Z" transform="translate(-31.13 -21.77)"/><path class="cls-4" d="M329.82,388a10.89,10.89,0,0,1,.86,3.48,17.41,17.41,0,0,1-.33,4.81,16.4,16.4,0,0,1-.55,2.19c-.28,1-.66,2-1.11,3.13s-1,2.32-1.56,3.54a38.1,38.1,0,0,1-1.84,3.43,21.14,21.14,0,0,1-2,2.82,6.36,6.36,0,0,1-2.08,1.7,6.09,6.09,0,0,1-2,.5,8.77,8.77,0,0,1-2.57-.13,14.5,14.5,0,0,1-4.5-1.47,6.46,6.46,0,0,1-3-3,16.27,16.27,0,0,1-1.4-5.34,19.68,19.68,0,0,1,.36-6,24,24,0,0,1,2.22-6.13,22.28,22.28,0,0,1,4.2-5.59l3.14.11c1.84-1.34,3.16-2.29,4-2.83a17,17,0,0,1,1.67-1,1.76,1.76,0,0,1,1.34.07,5.74,5.74,0,0,1,1.74,1.07,12.57,12.57,0,0,1,1.82,2A14.64,14.64,0,0,1,329.82,388Zm-5.6,3.71a11.28,11.28,0,0,0-1.69-2.7,15.52,15.52,0,0,0-2.65-2.3l-1.44.79a18.6,18.6,0,0,0-3.38,5.67,21.74,21.74,0,0,0-1.28,5.74,19.18,19.18,0,0,0,.25,5.15,17.4,17.4,0,0,0,1.16,3.85l.51,1.09c.17.37.38.76.61,1.17l3.38.24A32,32,0,0,0,324.3,400a20,20,0,0,0,.59-4.69A8.46,8.46,0,0,0,324.22,391.75Z" transform="translate(-31.13 -21.77)"/><path class="cls-4" d="M298.48,402a10.52,10.52,0,0,1,.19,3.57,17.68,17.68,0,0,1-1.22,4.67,18.07,18.07,0,0,1-1,2c-.45.87-1,1.82-1.68,2.86s-1.39,2.09-2.19,3.18a38.51,38.51,0,0,1-2.46,3,22.07,22.07,0,0,1-2.51,2.39,6.51,6.51,0,0,1-2.37,1.27,6.22,6.22,0,0,1-2,.12,8.9,8.9,0,0,1-2.51-.61,14.51,14.51,0,0,1-4.14-2.29,6.5,6.5,0,0,1-2.42-3.53,16.26,16.26,0,0,1-.37-5.5,19.89,19.89,0,0,1,1.49-5.87,23.64,23.64,0,0,1,3.34-5.59,21.73,21.73,0,0,1,5.18-4.71l3.06.7q3.09-1.46,4.44-2a17.1,17.1,0,0,1,1.83-.68,1.73,1.73,0,0,1,1.3.32,5.88,5.88,0,0,1,1.51,1.37,12.72,12.72,0,0,1,1.42,2.27A14.65,14.65,0,0,1,298.48,402Zm-6.2,2.58a11.15,11.15,0,0,0-1.14-3,15.77,15.77,0,0,0-2.17-2.77l-1.57.51a18.5,18.5,0,0,0-4.38,4.93,21.45,21.45,0,0,0-2.35,5.4,19.84,19.84,0,0,0-.72,5.11,16.93,16.93,0,0,0,.42,4l.3,1.17c.09.39.22.82.37,1.27l3.28.87a31.84,31.84,0,0,0,3.77-4.55,31,31,0,0,0,2.72-4.82,20.05,20.05,0,0,0,1.46-4.5A8.45,8.45,0,0,0,292.28,404.57Z" transform="translate(-31.13 -21.77)"/><path class="cls-4" d="M264.4,410.14a4.75,4.75,0,0,1-1.45,3.23,22.24,22.24,0,0,1-4.3,3.67,63.6,63.6,0,0,1-6.73,4q-4,2.06-8.67,4.19,2.92-.56,5.28-.84c1.56-.2,3-.34,4.43-.41s2.74-.1,4.06-.09,2.73.08,4.24.18l-1.77,4.77c-1.7-.2-3.24-.34-4.61-.41a40,40,0,0,0-4.1,0c-1.35.07-2.77.23-4.26.45s-3.21.54-5.16.95l-2.75-5a38.68,38.68,0,0,0,6.54-3,44,44,0,0,0,6.06-4.15A32.15,32.15,0,0,0,256,413a13.46,13.46,0,0,0,2.62-4.81l-2.08-2-1.87.1a16.25,16.25,0,0,0-4.15.92,45.78,45.78,0,0,0-6.3,2.79l-2.57-3.71a69,69,0,0,1,7.08-3.16,17.33,17.33,0,0,1,5.16-1.16,8.41,8.41,0,0,1,4,.76,18.27,18.27,0,0,1,3.82,2.57,9.33,9.33,0,0,1,1.8,2.26A5.87,5.87,0,0,1,264.4,410.14Z" transform="translate(-31.13 -21.77)"/><path class="cls-4" d="M227.36,423.24a7.33,7.33,0,0,1-2.33,2.14,26.9,26.9,0,0,1-3.14,1.47,5.86,5.86,0,0,1-3.75-.18,20.12,20.12,0,0,1-5.14-2.59,36.16,36.16,0,0,0-8.94-3.86c-.95-.3-1.74-.55-2.38-.72l-1.82-.5c-.59-.16-1.19-.31-1.81-.46s-1.4-.33-2.33-.52c-1.78-.41-3.53-.75-5.23-1s-3.3-.42-4.77-.5a29.27,29.27,0,0,0-4,0,9,9,0,0,0-2.75.54,3.26,3.26,0,0,1-1.58.28,1.57,1.57,0,0,1-1-.49,1.7,1.7,0,0,1-.39-1.07,3.27,3.27,0,0,1,.3-1.42,4.12,4.12,0,0,1,1.3-1.63,7.37,7.37,0,0,1,1.85-1,5.55,5.55,0,0,1,1.9-.41,2.57,2.57,0,0,1,1.48.31,5,5,0,0,0,1,.49,14.15,14.15,0,0,0,1.39.46q.73.21,1.44.36a5.09,5.09,0,0,0,1.2.14c.52,0,1.07,0,1.64.07s1.24.12,2,.22,1.68.27,2.75.5l4,.84a1.63,1.63,0,0,0,1,0c.17-.09.31-.37.4-.84.21-1,.43-2,.67-3.17s.48-2.28.72-3.4.48-2.22.72-3.27.47-2,.69-2.86c.09-.43.07-.71,0-.85a1.82,1.82,0,0,0-.88-.35c-.5-.11-1-.21-1.39-.32l-.85-.21a18.16,18.16,0,0,0-3.92-.57,19.23,19.23,0,0,0-4.26.25c-2.09.38-3.24-.24-3.42-1.85a2.47,2.47,0,0,1,.41-1.65,4.46,4.46,0,0,1,2.06-1.3,5,5,0,0,1,2.68-.33,6.1,6.1,0,0,1,2.17.74,11.45,11.45,0,0,0,1.57.55,14.61,14.61,0,0,0,2.57.54l3.88.65c1.06.19,2.08.39,3.07.59s2.05.46,3.21.74l4.28,1.07q2.94.73,5.34,1.29c1.6.38,2.79.68,3.56.92,1.05.34,1.42,1,1.11,1.92a2.17,2.17,0,0,1-.69,1,2.2,2.2,0,0,1-1.42.21c-.66-.07-1.88-.27-3.66-.61s-3.88-.8-6.29-1.38c-.65-.14-1.16-.24-1.54-.3a2.3,2.3,0,0,0-.87,0,.8.8,0,0,0-.46.32,1.67,1.67,0,0,0-.24.62c-.21.82-.45,1.77-.71,2.85s-.53,2.2-.79,3.34-.52,2.26-.77,3.37-.47,2.09-.65,2.95a1,1,0,0,0,.12.92,1.87,1.87,0,0,0,1,.43c.6.17,1.27.34,2,.51s1.48.36,2.18.55q6.93,1.74,11.16,2.55c2.82.54,4.49.82,5,.86s1,.2,1.08.45S227.94,422.42,227.36,423.24Z" transform="translate(-31.13 -21.77)"/><path class="cls-4" d="M164.41,410.75a14,14,0,0,1-1.72.95,7.39,7.39,0,0,1-1.63.53,10,10,0,0,1-1.78.21c-.64,0-1.37,0-2.21,0a6.27,6.27,0,0,1-3.18-1.14,9.65,9.65,0,0,1-2.61-2.64,6.83,6.83,0,0,1-.49-.74c-.25-.4-.53-.85-.86-1.34s-.65-1-1-1.48l-.82-1.25q-2.35-3.64-3.95-6.06c-1.06-1.62-2-3-2.74-4.07s-1.44-2-2-2.76-1.14-1.46-1.74-2.16a3.56,3.56,0,0,0-1.38-1.11,1.67,1.67,0,0,0-1.41.21,9.65,9.65,0,0,1-2.85,1.14,16.79,16.79,0,0,1-3.47.46,21.28,21.28,0,0,1-3.65-.2,13.21,13.21,0,0,1-3.4-.94,6.33,6.33,0,0,1-2-1.21,4.37,4.37,0,0,1-1-1.53c-.26-.84-.32-1.38-.17-1.63s.59-.2,1.32.15a13.37,13.37,0,0,0,2.66.94,23,23,0,0,0,3,.56,17.73,17.73,0,0,0,2.89.13,12.49,12.49,0,0,0,2.53-.34c1.31-.33,2-.74,2.15-1.24s-.31-1.12-1.32-1.85a7.74,7.74,0,0,0-.89-.56,9.19,9.19,0,0,0-.91-.39,1.9,1.9,0,0,1-1.23-.89.75.75,0,0,1,.31-1,3.2,3.2,0,0,1,1.86-.8,5.26,5.26,0,0,1,2.77,1.08l.81.51a5.73,5.73,0,0,1,.8.64,1.83,1.83,0,0,0,1.82.48c.55-.2,1.15-.92,1.8-2.15a1.17,1.17,0,0,0-.31-1.56,5.13,5.13,0,0,0-2.93-.83,3.33,3.33,0,0,1-2.06-.68,1.54,1.54,0,0,1-.63-1.56,1.39,1.39,0,0,1,1-1.08,3,3,0,0,1,1.94.07,8.37,8.37,0,0,0,2.3.32,9.4,9.4,0,0,0,2.51-.26c.76-.19,1.14-.58,1.16-1.19s-.43-1.1-1.35-1.48a13.48,13.48,0,0,0-2.71-.91,9.09,9.09,0,0,1-1.66-.39,2,2,0,0,1-.87-.74,1.29,1.29,0,0,1,.14-1.67,2.74,2.74,0,0,1,2.39-.85,8.84,8.84,0,0,1,2.47.3,3,3,0,0,1,1.31,1.07,8.28,8.28,0,0,0,1,1.11,8.77,8.77,0,0,0,1.27.88,8.31,8.31,0,0,0,1.48.73,6.49,6.49,0,0,0,1.29.29,2.64,2.64,0,0,1,1.42.78,3.39,3.39,0,0,1,.95,1.78q.33,1.49-2.37,2.16c-.56.14-1.28.29-2.18.43s-1.57.25-2,.32-.83.17-.85.35.2.38.66.62a2.1,2.1,0,0,1,1.36,1.83,2.91,2.91,0,0,1-.85,2.12q-1.25,1.23-1.92,2a8.45,8.45,0,0,0-.95,1.32,1.5,1.5,0,0,0-.22.86,1.41,1.41,0,0,0,.34.71c.67.87,1.29,1.67,1.86,2.39s1.13,1.4,1.67,2l1.6,1.82c.52.59,1.08,1.21,1.67,1.86a1.41,1.41,0,0,0,.92.48.92.92,0,0,0,.85-.45c.67-.92.95-1.58.81-2s-.73-1-1.79-1.71c-.45-.31-.91-.61-1.38-.89s-.92-.53-1.35-.74-.81-.39-1.15-.53a2,2,0,0,0-.72-.2c-.75,0-1.22-.27-1.42-.73-.28-.67,0-1.15.72-1.42a3.46,3.46,0,0,1,1.58-.33,2.47,2.47,0,0,1,1.22.47,7.36,7.36,0,0,1,.62.4,7.35,7.35,0,0,0,.65.42l.82.49,1.13.68c.71.38,1.28.67,1.71.89a5.82,5.82,0,0,0,1,.42.8.8,0,0,0,.53,0,.79.79,0,0,0,.28-.31.88.88,0,0,0,.16-.48.83.83,0,0,0-.26-.47,4.3,4.3,0,0,0-.82-.65c-.39-.25-.93-.59-1.62-1a19.21,19.21,0,0,0-2-1,9.22,9.22,0,0,0-2-.63c-.67-.09-1-.33-1.08-.7s.26-.72,1-1a2.6,2.6,0,0,1,2.48.14c.6.41,1.15.74,1.63,1l1.83,1a10.23,10.23,0,0,0,1.89.9.49.49,0,0,0,.63-.3.76.76,0,0,0,0-.76,5.9,5.9,0,0,0-1.32-1.11,10.94,10.94,0,0,0-2.37-1.26,6.73,6.73,0,0,0-2.16-.55,1.35,1.35,0,0,1-1-.37.76.76,0,0,1-.09-.92,1.54,1.54,0,0,1,1-.71,2.75,2.75,0,0,1,1.52-.09,8.68,8.68,0,0,1,1.32.47,2.42,2.42,0,0,1,.77.53,13.08,13.08,0,0,0,2.15,1.54,5.9,5.9,0,0,0,1.26.62q.36.09.57-.36a.75.75,0,0,0,0-.82,4.16,4.16,0,0,0-1.18-.8c-.65-.34-1.2-.64-1.65-.89s-.8-.43-1.07-.54c-.61-.28-1.12-.5-1.55-.67s-.81-.31-1.13-.42l-.87-.26c-.25-.07-.54-.13-.84-.19a1.42,1.42,0,0,1-1.09-.74.7.7,0,0,1,.13-1,3.37,3.37,0,0,1,1.1-.56,5.77,5.77,0,0,1,1.73,0,2.21,2.21,0,0,1,.77.3,3.62,3.62,0,0,1,.81.58,1.26,1.26,0,0,0,.33.36,7.16,7.16,0,0,0,.64.42l1.2.71c.51.3,1.21.7,2.1,1.19a4.17,4.17,0,0,0,1.47.59c.27,0,.51-.15.72-.5s0-.91-.68-1.43l-.84-.47-1-.54q-.51-.27-1-.48c-.3-.13-.52-.22-.67-.27a3.19,3.19,0,0,1-1.43-.7c-.33-.3-.46-.55-.38-.76a2,2,0,0,1,.8-1,2.38,2.38,0,0,1,1.3-.41,1.77,1.77,0,0,1,1,.25,3.32,3.32,0,0,1,.81.57,7.08,7.08,0,0,0,1,1,11.83,11.83,0,0,0,1.07.73,2.73,2.73,0,0,0,1.18.48.85.85,0,0,0,.69-.51c.52-.8,1-1.19,1.41-1.18a4.79,4.79,0,0,1,2,1,2.29,2.29,0,0,1,.89,1.14,3.41,3.41,0,0,1-.45,1.87.71.71,0,0,0-.07.6.9.9,0,0,0,.34.33c1.44.95,2.43,1.57,3,1.87a2.47,2.47,0,0,0,1.09.43,2.79,2.79,0,0,1,1.21,0,2.57,2.57,0,0,1,.67.27,3.61,3.61,0,0,1,.85.76,4.09,4.09,0,0,1,.64,1,1.83,1.83,0,0,1,.12,1.13,4.67,4.67,0,0,1-.89,1.23c-.63.69-.53,1.34.29,2,.47.36.88.65,1.22.86a6.8,6.8,0,0,1,1,.74c.73.56,1,1.05.73,1.45s-.72.73-1.18.58-.92-.4-1.33-.6a15.35,15.35,0,0,1-1.53-.92c-.49-.33-.88-.44-1.18-.32a3.08,3.08,0,0,0-1.13,1.3,1.13,1.13,0,0,1-.93.54,1.48,1.48,0,0,1-1.15-.37c-.41-.33-.86-.66-1.38-1s-1-.66-1.43-.92c-.85-.51-1.52-.9-2-1.18a12.19,12.19,0,0,0-1.18-.58,1.39,1.39,0,0,0-.6-.13.47.47,0,0,0-.26.23.55.55,0,0,0,0,.68,4.53,4.53,0,0,0,1.08.81c.32.18.73.44,1.24.76l1.53,1,1.54,1c.51.33.94.62,1.3.87.64.43.66.86.05,1.31a1.87,1.87,0,0,1-1.54,0,9.31,9.31,0,0,1-2.33-1.23c-.95-.62-1.71-1.1-2.26-1.45a8.25,8.25,0,0,0-1.33-.73,1,1,0,0,0-.74-.09,1,1,0,0,0-.43.38c-.13.22-.07.46.19.72a10.24,10.24,0,0,0,1.47,1.11l2,1.3c.59.38,1.12.73,1.57,1.07s.89.65,1.29,1l1.24,1c.83.67,1,1.28.5,1.84a1.29,1.29,0,0,1-.86.47,3.93,3.93,0,0,1-1.46-.65c-.66-.39-1.53-.92-2.6-1.58s-2.15-1.34-3.23-2a3.07,3.07,0,0,0-1.61-.57c-.38,0-.77.41-1.17,1.15-.24.41-.46.75-.64,1a1.92,1.92,0,0,1-.59.61.47.47,0,0,0-.25.49,1,1,0,0,0,.39.68c1.39,1.17,2.79,2.34,4.22,3.51s2.67,2.14,3.71,2.89c.13.07.41.26.85.57l1.4,1,1.38.95c.42.3.7.48.82.56q1,.58,1.08,1T164.41,410.75Zm-1-22.32a.64.64,0,0,0,.18-.94,8.85,8.85,0,0,0-1.94-1.57,5.78,5.78,0,0,0-1.74-.88.69.69,0,0,0-.82.24.65.65,0,0,0-.1.45,1.09,1.09,0,0,0,.33.52,9.15,9.15,0,0,0,.92.8,20.76,20.76,0,0,0,1.73,1.23,2,2,0,0,0,.78.4A.86.86,0,0,0,163.42,388.43Zm2.25-3.45c.17-.36.2-.63.07-.81a2.85,2.85,0,0,0-.68-.63,11.52,11.52,0,0,0-3.09-1.72.91.91,0,0,0-1.14.47.76.76,0,0,0,.08.88A4.26,4.26,0,0,0,162,384c.69.42,1.25.74,1.7,1a6,6,0,0,0,1.05.43.66.66,0,0,0,.55,0A1.34,1.34,0,0,0,165.67,385Z" transform="translate(-31.13 -21.77)"/></g><g id="安中楼"><path class="cls-5" d="M443.29,305.67" transform="translate(-31.13 -21.77)"/><path class="cls-5" d="M38.84,306.68" transform="translate(-31.13 -21.77)"/><polygon class="cls-6" points="296.31 268.4 280.13 269.33 280.13 265.77 296.31 268.4"/><polygon class="cls-6" points="91.5 221 91.5 227.91 84.15 226.63 91.5 221"/><polygon class="cls-6" points="117.85 200.79 117.85 212.81 105.94 209.93 117.85 200.79"/><polygon class="cls-7" points="117.85 212.81 117.85 283.9 106.65 283.9 105.94 209.93 117.85 212.81"/><polygon class="cls-7" points="91.5 227.91 91.5 283.9 84.15 283.9 84.15 226.63 91.5 227.91"/><polygon class="cls-8" points="296.31 268.4 296.31 283.9 280.13 283.9 280.13 269.33 296.31 268.4"/><polygon class="cls-9" points="307.88 183.02 307.88 230.01 269.69 209.93 269.69 195.99 307.88 183.02"/><polygon class="cls-10" points="350.51 224.74 351.06 283.9 296.31 283.9 296.31 268.4 280.13 265.77 280.13 269.33 280.13 283.9 209.21 283.9 209.8 87.05 269.69 145.65 269.69 195.99 269.69 209.93 307.88 230.01 307.88 183.02 350.51 224.74"/><polygon class="cls-9" points="209.8 87.05 209.21 283.9 117.85 283.9 117.85 212.81 117.85 200.79 105.94 209.93 106.65 283.9 91.5 283.9 91.5 227.91 91.5 221 84.15 226.63 84.15 283.9 68.44 283.9 68.44 225.81 209.8 87.05"/></g><g id="求是鹰"><path class="cls-11" d="M242.39,389l-25-38.18c-2.61-4-5.17-8-7.86-11.95-1-1.45-1-2.18.51-3.4A14.55,14.55,0,0,0,214.71,319c-1.2-3.26-3.31-5.45-6.9-6-1.86-.27-3.7-.69-5.56-1-9.6-1.53-14.94-7.87-18.81-16.67h16.2c-1.66-4.51-3.15-8.53-4.6-12.57-.47-1.3-1.43-1.11-2.45-1a45.39,45.39,0,0,1-8.64-.17,19.11,19.11,0,0,1-13.33-7.31,59.19,59.19,0,0,1-7.41-11.54c7.25,0,13.75-.05,20.25,0,2.32,0,3.34-.33,2.07-2.9-1.36-2.78-1.69-6.46-3.74-8.39s-5.89-.49-8.93-.64c-8.49-.4-16.61-1.62-22.73-8.39-2.86-3.16-4.69-6.89-6.88-11.79,6.35,0,12,0,17.59,0,3.33,0,6.66-.25,10-.31,1.78,0,2.06-.63,1.29-2.22-1.49-3.08-3-6.2-4.2-9.4-.8-2-1.9-2.78-4.19-2.69-5.21.22-10.43,0-15.65.05-11.69,0-20.51-4.87-26.15-15.22-.87-1.6-3-3.26-2.15-4.84.7-1.29,3.27-.48,5-.5,9.55-.11,19.11-.2,28.66-.1,2.68,0,3-.7,1.93-3-1.52-3.32-1.92-7.85-4.42-9.84s-7-.37-10.66-.41c-7.33-.07-14.63-.1-21.83-1.94-9.35-2.41-15.09-8.77-19.41-16.77.46-1,1.21-.7,1.81-.71,24.76-.62,49.52-1.47,74.28-1.72,13.6-.14,23.77,6.3,29.88,18.6,3,5.94,5.61,12,8.73,18.74C216,190.8,218,183.88,220,176.94c1-3.29,2-6.57,2.79-9.91,1.53-6.59,5.76-10.46,12.17-11.73,15.22-3,29.26.22,42.13,8.76a13,13,0,0,1,1.35,1.26c-3.63,1.37-7,2.66-10.33,3.89s-6.89,2.46-10.33,3.67c-1.24.44-2.13.77-1.38,2.55,3.51,8.25,6.85,16.56,10.47,25.39,1.62-3.53,3-6.59,4.41-9.61,3.23-6.84,6.87-13.43,11.92-19.14,6.36-7.19,14.18-11.18,23.93-11.17q36.15,0,72.31-.05c2.42,0,2.53.73,1.71,2.63-5.23,12.17-15,17.58-27.7,18.52a72.18,72.18,0,0,1-19.24-1.06c-1.9-.38-2.83.07-3.45,1.9-1.31,3.85-2.8,7.64-4.32,11.75h36.95c-1.6,11-12.88,20.65-24.89,21.4a89.88,89.88,0,0,1-18.62-.61c-2.25-.32-3.36.33-4.13,2.53-1.3,3.73-3,7.33-4.63,11.35l26,.8c4.17.12,4.18.17,2.12,3.95-5.61,10.28-14.71,14.67-26,15.24-3.09.15-6.21-.13-9.31-.24-1.06,0-2.18-.58-2.72,1-1.37,4.08-2.85,8.13-4.39,12.49,7.22,0,14.06.08,20.91,0,2.35,0,3.05.44,1.76,2.66a44.87,44.87,0,0,0-1.95,4.22c-3.63,8.13-10,12.12-18.78,12.6-.89.05-1.78,0-2.66.09-2.86.24-7-1.3-8.31.52-2.4,3.25-3.21,7.69-4.59,11.67-.63,1.84,1,1.34,1.78,1.36q6.17.15,12.33.1c1.94,0,2.19.41,1.41,2.29-4,9.52-10.65,15.37-21.26,15.13-9.94-.23-13.58,10.23-9.3,18.1a15.39,15.39,0,0,0,4.23,5.08c1.16.88,1.46,1.55.59,2.95C262.89,355.63,252.8,372.07,242.39,389Z" transform="translate(-31.13 -21.77)"/><path class="cls-12" d="M242.39,389l-25-38.18c-2.61-4-5.17-8-7.86-11.95-1-1.45-1-2.18.51-3.4A14.55,14.55,0,0,0,214.71,319c-1.2-3.26-3.31-5.45-6.9-6-1.86-.27-3.7-.69-5.56-1-9.6-1.53-14.94-7.87-18.81-16.67h16.2c-1.66-4.51-3.15-8.53-4.6-12.57-.47-1.3-1.43-1.11-2.45-1a45.39,45.39,0,0,1-8.64-.17,19.11,19.11,0,0,1-13.33-7.31,59.19,59.19,0,0,1-7.41-11.54c7.25,0,13.75-.05,20.25,0,2.32,0,3.34-.33,2.07-2.9-1.36-2.78-1.69-6.46-3.74-8.39s-5.89-.49-8.93-.64c-8.49-.4-16.61-1.62-22.73-8.39-2.86-3.16-4.69-6.89-6.88-11.79,6.35,0,12,0,17.59,0,3.33,0,6.66-.25,10-.31,1.78,0,2.06-.63,1.29-2.22-1.49-3.08-3-6.2-4.2-9.4-.8-2-1.9-2.78-4.19-2.69-5.21.22-10.43,0-15.65.05-11.69,0-20.51-4.87-26.15-15.22-.87-1.6-3-3.26-2.15-4.84.7-1.29,3.27-.48,5-.5,9.55-.11,19.11-.2,28.66-.1,2.68,0,3-.7,1.93-3-1.52-3.32-1.92-7.85-4.42-9.84s-7-.37-10.66-.41c-7.33-.07-14.63-.1-21.83-1.94-9.35-2.41-15.09-8.77-19.41-16.77.46-1,1.21-.7,1.81-.71,24.76-.62,49.52-1.47,74.28-1.72,13.6-.14,23.77,6.3,29.88,18.6,3,5.94,5.61,12,8.73,18.74C216,190.8,218,183.88,220,176.94c1-3.29,2-6.57,2.79-9.91,1.53-6.59,5.76-10.46,12.17-11.73,15.22-3,29.26.22,42.13,8.76a13,13,0,0,1,1.35,1.26c-3.63,1.37-7,2.66-10.33,3.89s-6.89,2.46-10.33,3.67c-1.24.44-2.13.77-1.38,2.55,3.51,8.25,6.85,16.56,10.47,25.39,1.62-3.53,3-6.59,4.41-9.61,3.23-6.84,6.87-13.43,11.92-19.14,6.36-7.19,14.18-11.18,23.93-11.17q36.15,0,72.31-.05c2.42,0,2.53.73,1.71,2.63-5.23,12.17-15,17.58-27.7,18.52a72.18,72.18,0,0,1-19.24-1.06c-1.9-.38-2.83.07-3.45,1.9-1.31,3.85-2.8,7.64-4.32,11.75h36.95c-1.6,11-12.88,20.65-24.89,21.4a89.88,89.88,0,0,1-18.62-.61c-2.25-.32-3.36.33-4.13,2.53-1.3,3.73-3,7.33-4.63,11.35l26,.8c4.17.12,4.18.17,2.12,3.95-5.61,10.28-14.71,14.67-26,15.24-3.09.15-6.21-.13-9.31-.24-1.06,0-2.18-.58-2.72,1-1.37,4.08-2.85,8.13-4.39,12.49,7.22,0,14.06.08,20.91,0,2.35,0,3.05.44,1.76,2.66a44.87,44.87,0,0,0-1.95,4.22c-3.63,8.13-10,12.12-18.78,12.6-.89.05-1.78,0-2.66.09-2.86.24-7-1.3-8.31.52-2.4,3.25-3.21,7.69-4.59,11.67-.63,1.84,1,1.34,1.78,1.36q6.17.15,12.33.1c1.94,0,2.19.41,1.41,2.29-4,9.52-10.65,15.37-21.26,15.13-9.94-.23-13.58,10.23-9.3,18.1a15.39,15.39,0,0,0,4.23,5.08c1.16.88,1.46,1.55.59,2.95C262.89,355.63,252.8,372.07,242.39,389Z" transform="translate(-31.13 -21.77)"/></g><g id="五角星"><circle class="cls-13" cx="209.74" cy="315.68" r="20.45"/><g id="图层_7" data-name="图层 7"><polygon class="cls-14" points="209.74 296.19 214.17 309.81 228.49 309.81 216.9 318.23 221.33 331.85 209.74 323.43 198.16 331.85 202.58 318.23 191 309.81 205.32 309.81 209.74 296.19"/></g></g></svg>